<?xml version="1.0" encoding="UTF-8" standalone="no"?>
<!-- Created with Inkscape (http://www.inkscape.org/) -->

<svg
   width="210mm"
   height="297mm"
   viewBox="0 0 210 297"
   version="1.1"
   id="svg1"
   inkscape:version="1.4 (86a8ad7, 2024-10-11)"
   sodipodi:docname="inovaea_logo_ink.svg"
   xmlns:inkscape="http://www.inkscape.org/namespaces/inkscape"
   xmlns:sodipodi="http://sodipodi.sourceforge.net/DTD/sodipodi-0.dtd"
   xmlns="http://www.w3.org/2000/svg"
   xmlns:svg="http://www.w3.org/2000/svg">
  <sodipodi:namedview
     id="namedview1"
     pagecolor="#ffffff"
     bordercolor="#000000"
     borderopacity="0.25"
     inkscape:showpageshadow="2"
     inkscape:pageopacity="0.0"
     inkscape:pagecheckerboard="0"
     inkscape:deskcolor="#d1d1d1"
     inkscape:document-units="mm"
     inkscape:zoom="2.9041807"
     inkscape:cx="267.88966"
     inkscape:cy="329.00845"
     inkscape:window-width="1920"
     inkscape:window-height="1017"
     inkscape:window-x="1912"
     inkscape:window-y="-8"
     inkscape:window-maximized="1"
     inkscape:current-layer="layer2"
     showgrid="false" />
  <defs
     id="defs1" />
  <g
     inkscape:label="podklad"
     inkscape:groupmode="layer"
     id="layer1" />
  <g
     inkscape:groupmode="layer"
     id="layer2"
     inkscape:label="text_bottom">
    <path
       id="path35"
       style="font-weight:bold;font-size:22.5778px;font-family:'Berlin Sans FB';-inkscape-font-specification:'Berlin Sans FB Bold';fill:#555554;fill-opacity:1;stroke-width:0.265;paint-order:fill markers stroke"
       inkscape:label="o"
       d="M 48.658529 80.091752 C 46.953434 80.091752 45.55335 80.660996 44.458268 81.800175 C 43.392584 82.924656 42.859916 84.346788 42.859916 86.066581 C 42.859916 87.705529 43.414633 89.061516 44.524414 90.13455 C 45.634195 91.207583 47.012231 91.744271 48.658529 91.744271 C 50.348923 91.744271 51.737983 91.196559 52.825716 90.101477 C 53.913449 88.999045 54.457658 87.602981 54.457658 85.912585 C 54.457658 84.22219 53.913449 82.829111 52.825716 81.734029 C 51.737983 80.638947 50.348923 80.091752 48.658529 80.091752 z M 48.658529 84.875956 C 48.945161 84.875956 49.184193 84.979194 49.375281 85.184981 C 49.573719 85.383419 49.672937 85.625953 49.672937 85.912585 C 49.672937 86.206567 49.577221 86.452604 49.386133 86.651042 C 49.195044 86.84948 48.95251 86.948698 48.658529 86.948698 C 48.371896 86.948698 48.129362 86.84948 47.930924 86.651042 C 47.739836 86.445255 47.644637 86.199218 47.644637 85.912585 C 47.644637 85.618604 47.739836 85.37205 47.930924 85.173612 C 48.129362 84.975174 48.371896 84.875956 48.658529 84.875956 z "
       inkscape:export-filename="inovaea_logo.webp"
       inkscape:export-xdpi="96"
       inkscape:export-ydpi="96" />
    <path
       style="font-weight:bold;font-size:22.5778px;font-family:'Berlin Sans FB';-inkscape-font-specification:'Berlin Sans FB Bold';fill:#555555;stroke-width:0.265;paint-order:fill markers stroke;fill-opacity:1"
       d="m 28.02119,80.885368 q 0,0.07717 -0.02205,0.286632 -0.385851,4.145143 -0.385851,5.23655 0,0.73863 0.03307,2.226912 0.0441,1.477259 0.0441,2.226912 0,0.363803 -0.02205,0.418924 -0.05512,0.187414 -0.341754,0.187414 -0.385851,0 -1.157553,-0.0441 -0.760678,-0.0441 -1.146529,-0.0441 -0.385852,0 -1.157554,0.0441 -0.760678,0.0441 -1.146529,0.0441 -0.286632,0 -0.341753,-0.187414 -0.02205,-0.05512 -0.02205,-0.418924 0,-0.749653 0.03307,-2.226912 0.03307,-1.488282 0.03307,-2.226912 0,-1.675696 -0.374827,-5.23655 -0.03307,-0.209462 -0.03307,-0.297657 0,-0.286632 0.341754,-0.286632 0.440973,0 1.322918,0.143316 0.89297,0.143316 1.344967,0.143316 0.451997,0 1.333942,-0.143316 0.89297,-0.143316 1.333942,-0.143316 0.33073,0 0.33073,0.297657 z"
       id="path33"
       inkscape:label="i" />
    <path
       style="font-weight:bold;font-size:22.5778px;font-family:'Berlin Sans FB';-inkscape-font-specification:'Berlin Sans FB Bold';fill:#555555;stroke-width:0.265;paint-order:fill markers stroke;fill-opacity:1"
       d="m 41.669294,91.060812 q 0,0.451997 -0.4079,0.451997 -0.374827,0 -1.113456,-0.03307 -0.738629,-0.03307 -1.102431,-0.03307 -0.385852,0 -1.157554,0.01103 -0.760678,0.01102 -1.146529,0.01102 -0.429948,0 -0.429948,-0.56224 0,-0.507119 0.02205,-1.499307 0.02205,-1.003213 0.02205,-1.510332 0,-0.374827 -0.02205,-1.12448 -0.02205,-0.749654 -0.02205,-1.12448 0,-0.639411 -0.628386,-0.639411 -0.63941,0 -0.63941,0.617362 v 5.324745 q 0,0.56224 -0.474046,0.56224 -0.352778,0 -1.069359,-0.03307 -0.71658,-0.03307 -1.069358,-0.03307 -0.374827,0 -1.135505,0.01103 -0.749654,0.01102 -1.12448,0.01102 -0.474046,0 -0.474046,-0.474046 v -5.14837 q 0,-2.392276 -0.518143,-4.288459 -0.03307,-0.121267 -0.03307,-0.209462 0,-0.209462 0.187414,-0.286632 1.12448,-0.143316 2.667884,-0.363803 2.282034,-0.440972 2.623788,-0.440972 0.220486,0 0.275607,0.727605 0.05512,0.727605 0.17639,0.727605 -0.08819,0 1.135504,-0.639411 1.234724,-0.63941 2.039499,-0.63941 1.333942,0 2.304082,0.628386 1.113456,0.738629 1.113456,2.006425 z"
       id="path34"
       inkscape:label="n" />
    <path
       style="font-weight:bold;font-size:22.5778px;font-family:'Berlin Sans FB';-inkscape-font-specification:'Berlin Sans FB Bold';fill:#555555;stroke-width:0.265;paint-order:fill markers stroke;fill-opacity:1"
       d="m 67.234685,83.542228 q 0,2.259985 -0.132292,2.601739 -0.363802,0.915018 -1.664672,2.965541 -1.488282,2.359204 -1.973352,2.359204 -0.352778,0 -1.069359,-0.0441 -0.716581,-0.0441 -1.069359,-0.0441 -0.374827,0 -1.113456,0.0441 -0.727605,0.0441 -1.102431,0.0441 -0.48507,0 -1.962329,-2.34818 -1.267796,-2.01745 -1.675696,-2.976565 -0.308681,-0.760678 -0.308681,-2.601739 0,-0.418924 0.02205,-1.256772 0.02205,-0.848872 0.02205,-1.267796 0,-0.363803 0.474046,-0.363803 0.418924,0 1.267796,0.0441 0.859897,0.0441 1.278821,0.0441 0.363803,0 1.069359,-0.0441 0.716581,-0.0441 1.080383,-0.0441 0.286632,0 0.286632,0.4079 0,0.451997 -0.0441,1.378039 -0.0441,0.915019 -0.0441,1.37804 0,2.480471 0.683507,2.480471 0.782727,0 0.782727,-3.362416 0,-0.319706 -0.06615,-0.937067 -0.06615,-0.628386 -0.06615,-0.937067 0,-0.4079 0.297657,-0.4079 0.352778,0 1.069358,0.0441 0.716581,0.0441 1.069359,0.0441 0.374827,0 1.113456,-0.0441 0.749654,-0.0441 1.12448,-0.0441 0.25356,0 0.319706,0.05512 0.06615,0.05512 0.15434,0.308681 0.176389,0.540191 0.176389,2.524568 z"
       id="path37"
       inkscape:label="v" />
    <path
       id="path42"
       style="font-weight:bold;font-size:22.5778px;font-family:'Berlin Sans FB';-inkscape-font-specification:'Berlin Sans FB Bold';fill:#555555;stroke-width:0.265;paint-order:fill markers stroke;fill-opacity:1"
       inkscape:label="a"
       d="M 102.69967 80.444185 C 102.53795 80.444185 102.43523 80.572974 102.39117 80.830208 C 102.35442 81.087442 102.30682 81.216231 102.24802 81.216231 C 102.26272 81.216231 101.93199 81.098467 101.25583 80.863281 C 100.57968 80.620747 100.05402 80.499479 99.679187 80.499479 C 97.878549 80.499479 96.577684 80.973523 95.776583 81.921615 C 94.813793 83.068143 94.332227 84.504803 94.332227 86.231946 C 94.332227 87.716554 94.758672 88.984346 95.611218 90.035331 C 96.522562 91.159811 97.698658 91.72205 99.139168 91.72205 C 99.58749 91.72205 100.14973 91.549681 100.82589 91.204252 C 101.50203 90.851474 101.82173 90.675085 101.785 90.675085 C 101.87323 90.675085 101.92433 90.821903 101.939 91.115885 C 101.9537 91.409867 102.11205 91.556685 102.41339 91.556685 C 102.65592 91.556685 103.01973 91.54216 103.50479 91.51276 C 103.99721 91.48336 104.36452 91.468835 104.60705 91.468835 L 106.59143 91.468835 C 106.90746 91.446787 107.0653 91.288428 107.0653 90.994446 L 106.94438 89.307727 C 106.82678 87.793721 106.76764 86.640191 106.76764 85.84644 C 106.76764 84.824853 106.926 83.475871 107.24203 81.800175 C 107.27143 81.667883 107.28596 81.576186 107.28596 81.52474 C 107.28596 81.421849 107.21981 81.348181 107.08752 81.304081 C 106.76414 81.208537 106.02551 81.043173 104.87163 80.807987 C 103.66631 80.565452 102.94221 80.444185 102.69967 80.444185 z M 100.79281 84.964323 C 101.45427 84.964323 101.785 85.302573 101.785 85.978731 C 101.785 86.265363 101.68928 86.503878 101.4982 86.694967 C 101.31446 86.878705 101.07945 86.970919 100.79281 86.970919 C 100.49148 86.970919 100.23792 86.878705 100.03214 86.694967 C 99.826352 86.511228 99.723112 86.272713 99.723112 85.978731 C 99.723112 85.684749 99.826352 85.442215 100.03214 85.251127 C 100.23792 85.060039 100.49148 84.964323 100.79281 84.964323 z " />
    <path
       id="path40"
       style="font-weight:bold;font-size:22.5778px;font-family:'Berlin Sans FB';-inkscape-font-specification:'Berlin Sans FB Bold';fill:#555555;stroke-width:0.265;paint-order:fill markers stroke;fill-opacity:1"
       inkscape:label="e"
       d="M 88.026668 80.179602 C 86.358322 80.179602 84.965243 80.749362 83.848112 81.888542 C 82.738331 83.027721 82.183614 84.43883 82.183614 86.121875 C 82.183614 87.98866 82.760379 89.40327 83.914258 90.36606 C 84.987291 91.270054 86.479589 91.72205 88.39047 91.72205 C 90.389546 91.72205 91.796636 91.329195 92.612435 90.542794 C 92.70798 90.454599 92.756095 90.369907 92.756095 90.289062 C 92.756095 90.252314 92.630809 90.05738 92.380924 89.704602 C 92.101642 89.307724 91.962345 89.105784 91.962345 89.098437 C 91.71981 88.613368 91.543421 88.246064 91.433179 87.996179 C 91.359683 87.863887 91.263967 87.797742 91.146375 87.797742 C 91.06553 87.797742 90.745825 87.889438 90.18726 88.073177 C 89.636044 88.256916 89.195073 88.348612 88.864343 88.348612 C 88.533613 88.348612 88.210407 88.293491 87.894377 88.183248 C 87.497501 88.036257 87.254967 87.83782 87.166772 87.587935 L 89.74646 87.290279 C 91.488302 87.091844 92.443396 86.970577 92.612435 86.926477 C 93.090156 86.808884 93.329187 86.367913 93.329187 85.60356 C 93.329187 84.141001 92.807543 82.873208 91.763908 81.800175 C 90.727622 80.719792 89.481878 80.179602 88.026668 80.179602 z M 88.092814 83.883769 C 88.305951 83.883769 88.496866 83.982988 88.665906 84.181425 C 88.842295 84.379863 88.930489 84.589324 88.930489 84.80981 C 88.930489 84.875958 88.8017 84.920055 88.544466 84.942102 C 88.47097 84.949449 88.283558 84.975517 87.982227 85.019617 C 87.747041 85.056363 87.559628 85.074394 87.419987 85.074394 C 87.177452 85.074394 87.056185 84.990219 87.056185 84.821179 C 87.056185 84.571295 87.162925 84.354312 87.376062 84.170573 C 87.596548 83.979485 87.835579 83.883769 88.092814 83.883769 z " />
    <path
       id="path38"
       style="font-weight:bold;font-size:22.5778px;font-family:'Berlin Sans FB';-inkscape-font-specification:'Berlin Sans FB Bold';fill:#555555;stroke-width:0.265;paint-order:fill markers stroke;fill-opacity:1"
       inkscape:label="a"
       d="M 76.439779 80.444185 C 76.278091 80.444185 76.17537 80.572974 76.13127 80.830208 C 76.09452 81.087442 76.04692 81.216231 75.988127 81.216231 C 76.002826 81.216231 75.672098 81.098467 74.995939 80.863281 C 74.319781 80.620747 73.794118 80.499479 73.419291 80.499479 C 71.618653 80.499479 70.317788 80.973523 69.516687 81.921615 C 68.553896 83.068143 68.072331 84.504803 68.072331 86.231946 C 68.072331 87.716554 68.498775 88.984346 69.351322 90.035331 C 70.262666 91.159811 71.438762 91.72205 72.879272 91.72205 C 73.327594 91.72205 73.889833 91.549681 74.565991 91.204252 C 75.242149 90.851474 75.561852 90.675085 75.525106 90.675085 C 75.613299 90.675085 75.664402 90.821903 75.679102 91.115885 C 75.693801 91.409867 75.85216 91.556685 76.153491 91.556685 C 76.396026 91.556685 76.759827 91.54216 77.244897 91.51276 C 77.737317 91.48336 78.10462 91.468835 78.347156 91.468835 L 80.331531 91.468835 C 80.647561 91.446787 80.805404 91.288428 80.805404 90.994446 L 80.684481 89.307727 C 80.566888 87.793721 80.507747 86.640191 80.507747 85.84644 C 80.507747 84.824853 80.666107 83.475871 80.982137 81.800175 C 81.011537 81.667883 81.026062 81.576186 81.026062 81.52474 C 81.026062 81.421849 80.959917 81.348181 80.827625 81.304081 C 80.504245 81.208537 79.765618 81.043173 78.611739 80.807987 C 77.406414 80.565452 76.682313 80.444185 76.439779 80.444185 z M 74.532918 84.964323 C 75.194378 84.964323 75.525106 85.302573 75.525106 85.978731 C 75.525106 86.265363 75.42939 86.503878 75.238302 86.694967 C 75.054563 86.878705 74.81955 86.970919 74.532918 86.970919 C 74.231587 86.970919 73.978029 86.878705 73.772241 86.694967 C 73.566454 86.511228 73.463216 86.272713 73.463216 85.978731 C 73.463216 85.684749 73.566454 85.442215 73.772241 85.251127 C 73.978029 85.060039 74.231587 84.964323 74.532918 84.964323 z " />
    <path
       class="cls-1"
       d="m 25.060357,76.493942 c 0.367377,-0.383449 0.625459,-0.715007 1.193974,-0.780675 1.064015,-0.121234 2.040779,0.968038 1.50349,2.040318 -0.152921,0.305382 -0.464274,0.668626 -0.808688,1.024982 -0.377939,0.391255 -0.79629,0.774705 -1.089272,1.065392 l -0.799045,0.792616 -0.660359,-0.635563 c -0.794453,-0.765063 -2.087617,-1.728049 -2.13354,-2.921104 -0.02893,-0.835782 0.63051,-1.371234 1.389143,-1.361589 0.67781,0.0091 0.964364,0.346252 1.404297,0.775623 z"
       id="path1"
       style="fill:#e2001a;fill-rule:evenodd;stroke-width:0.0459221;fill-opacity:1" />
  </g>
  <g
     inkscape:groupmode="layer"
     id="layer3"
     inkscape:label="text_top" />
</svg>
