  0
SECTION
  2
HEADER
  9
$ACADVER
  1
AC1014
  9
$HANDSEED
  5
FFFF
  9
$INSUNITS
 70
     4
  9
$MEASUREMENT
 70
     1
  0
ENDSEC
  0
SECTION
  2
TABLES
  0
TABLE
  2
VPORT
  5
8
330
0
100
AcDbSymbolTable
 70
     4
  0
VPORT
  5
2E
330
8
100
AcDbSymbolTableRecord
100
AcDbViewportTableRecord
  2
*ACTIVE
 70
     0
 10
0.0
 20
0.0
 11
1.0
 21
1.0
 12
210.0
 22
148.5
 13
0.0
 23
0.0
 14
10.0
 24
10.0
 15
10.0
 25
10.0
 16
0.0
 26
0.0
 36
1.0
 17
0.0
 27
0.0
 37
0.0
 40
341.0
 41
1.24
 42
50.0
 43
0.0
 44
0.0
 50
0.0
 51
0.0
 71
     0
 72
   100
 73
     1
 74
     3
 75
     0
 76
     0
 77
     0
 78
     0
  0
ENDTAB
  0
TABLE
  2
LTYPE
  5
5
330
0
100
AcDbSymbolTable
 70
     1
  0
LTYPE
  5
14
330
5
100
AcDbSymbolTableRecord
100
AcDbLinetypeTableRecord
  2
BYBLOCK
 70
     0
  3

 72
    65
 73
     0
 40
0.0
  0
LTYPE
  5
15
330
5
100
AcDbSymbolTableRecord
100
AcDbLinetypeTableRecord
  2
BYLAYER
 70
     0
  3

 72
    65
 73
     0
 40
0.0
  0
LTYPE
  5
16
330
5
100
AcDbSymbolTableRecord
100
AcDbLinetypeTableRecord
  2
CONTINUOUS
 70
     0
  3
Solid line
 72
    65
 73
     0
 40
0.0
  0
ENDTAB
  0
TABLE
  2
LAYER
  5
2
100
AcDbSymbolTable
 70
4
  0
LAYER
  5
50
100
AcDbSymbolTableRecord
100
AcDbLayerTableRecord
  2
0
 70
0
  6
CONTINUOUS
  0
LAYER
  5
51
100
AcDbSymbolTableRecord
100
AcDbLayerTableRecord
  2
podklad
 70
0
  6
CONTINUOUS
  0
LAYER
  5
52
100
AcDbSymbolTableRecord
100
AcDbLayerTableRecord
  2
text_bottom
 70
0
  6
CONTINUOUS
  0
LAYER
  5
53
100
AcDbSymbolTableRecord
100
AcDbLayerTableRecord
  2
text_top
 70
0
  6
CONTINUOUS
  0
ENDTAB
  0
TABLE
  2
STYLE
  5
3
330
0
100
AcDbSymbolTable
 70
     1
  0
STYLE
  5
11
330
3
100
AcDbSymbolTableRecord
100
AcDbTextStyleTableRecord
  2
STANDARD
 70
     0
 40
0.0
 41
1.0
 50
0.0
 71
     0
 42
2.5
  3
txt
  4

  0
ENDTAB
  0
TABLE
  2
VIEW
  5
6
330
0
100
AcDbSymbolTable
 70
     0
  0
ENDTAB
  0
TABLE
  2
UCS
  5
7
330
0
100
AcDbSymbolTable
 70
     0
  0
ENDTAB
  0
TABLE
  2
APPID
  5
9
330
0
100
AcDbSymbolTable
 70
     2
  0
APPID
  5
12
330
9
100
AcDbSymbolTableRecord
100
AcDbRegAppTableRecord
  2
ACAD
 70
     0
  0
ENDTAB
  0
TABLE
  2
DIMSTYLE
  5
A
330
0
100
AcDbSymbolTable
 70
     1
  0
DIMSTYLE
105
27
330
A
100
AcDbSymbolTableRecord
100
AcDbDimStyleTableRecord
  2
ISO-25
 70
     0
  3

  4

  5

  6

  7

 40
1.0
 41
2.5
 42
0.625
 43
3.75
 44
1.25
 45
0.0
 46
0.0
 47
0.0
 48
0.0
140
2.5
141
2.5
142
0.0
143
0.03937007874016
144
1.0
145
0.0
146
1.0
147
0.625
 71
     0
 72
     0
 73
     0
 74
     0
 75
     0
 76
     0
 77
     1
 78
     8
170
     0
171
     3
172
     1
173
     0
174
     0
175
     0
176
     0
177
     0
178
     0
270
     2
271
     2
272
     2
273
     2
274
     3
340
11
275
     0
280
     0
281
     0
282
     0
283
     0
284
     8
285
     0
286
     0
287
     3
288
     0
  0
ENDTAB
  0
TABLE
  2
BLOCK_RECORD
  5
1
330
0
100
AcDbSymbolTable
 70
     1
  0
BLOCK_RECORD
  5
1F
330
1
100
AcDbSymbolTableRecord
100
AcDbBlockTableRecord
  2
*MODEL_SPACE
  0
BLOCK_RECORD
  5
1B
330
1
100
AcDbSymbolTableRecord
100
AcDbBlockTableRecord
  2
*PAPER_SPACE
  0
ENDTAB
  0
ENDSEC
  0
SECTION
  2
BLOCKS
  0
BLOCK
  5
20
330
1F
100
AcDbEntity
  8
0
100
AcDbBlockBegin
  2
*MODEL_SPACE
 70
     0
 10
0.0
 20
0.0
 30
0.0
  3
*MODEL_SPACE
  1

  0
ENDBLK
  5
21
330
1F
100
AcDbEntity
  8
0
100
AcDbBlockEnd
  0
BLOCK
  5
1C
330
1B
100
AcDbEntity
 67
     1
  8
0
100
AcDbBlockBegin
  2
*PAPER_SPACE
  1

  0
ENDBLK
  5
1D
330
1B
100
AcDbEntity
 67
     1
  8
0
100
AcDbBlockEnd
  0
ENDSEC
  0
SECTION
  2
ENTITIES
  0
SPLINE
  5
100
100
AcDbEntity
  8
text_bottom
 62
7
100
AcDbSpline
 70
8
 71
3
 72
8
 73
4
 74
0
 40
0
 40
0
 40
0
 40
0
 40
1
 40
1
 40
1
 40
1
 10
48.658529
 20
216.908248
 30
0.0
 10
46.953434
 20
216.908248
 30
0.0
 10
45.553350
 20
216.339004
 30
0.0
 10
44.458268
 20
215.199825
 30
0.0
  0
SPLINE
  5
101
100
AcDbEntity
  8
text_bottom
 62
7
100
AcDbSpline
 70
8
 71
3
 72
8
 73
4
 74
0
 40
0
 40
0
 40
0
 40
0
 40
1
 40
1
 40
1
 40
1
 10
44.458268
 20
215.199825
 30
0.0
 10
43.392584
 20
214.075344
 30
0.0
 10
42.859916
 20
212.653212
 30
0.0
 10
42.859916
 20
210.933419
 30
0.0
  0
SPLINE
  5
102
100
AcDbEntity
  8
text_bottom
 62
7
100
AcDbSpline
 70
8
 71
3
 72
8
 73
4
 74
0
 40
0
 40
0
 40
0
 40
0
 40
1
 40
1
 40
1
 40
1
 10
42.859916
 20
210.933419
 30
0.0
 10
42.859916
 20
209.294471
 30
0.0
 10
43.414633
 20
207.938484
 30
0.0
 10
44.524414
 20
206.865450
 30
0.0
  0
SPLINE
  5
103
100
AcDbEntity
  8
text_bottom
 62
7
100
AcDbSpline
 70
8
 71
3
 72
8
 73
4
 74
0
 40
0
 40
0
 40
0
 40
0
 40
1
 40
1
 40
1
 40
1
 10
44.524414
 20
206.865450
 30
0.0
 10
45.634195
 20
205.792417
 30
0.0
 10
47.012231
 20
205.255729
 30
0.0
 10
48.658529
 20
205.255729
 30
0.0
  0
SPLINE
  5
104
100
AcDbEntity
  8
text_bottom
 62
7
100
AcDbSpline
 70
8
 71
3
 72
8
 73
4
 74
0
 40
0
 40
0
 40
0
 40
0
 40
1
 40
1
 40
1
 40
1
 10
48.658529
 20
205.255729
 30
0.0
 10
50.348923
 20
205.255729
 30
0.0
 10
51.737983
 20
205.803441
 30
0.0
 10
52.825716
 20
206.898523
 30
0.0
  0
SPLINE
  5
105
100
AcDbEntity
  8
text_bottom
 62
7
100
AcDbSpline
 70
8
 71
3
 72
8
 73
4
 74
0
 40
0
 40
0
 40
0
 40
0
 40
1
 40
1
 40
1
 40
1
 10
52.825716
 20
206.898523
 30
0.0
 10
53.913449
 20
208.000955
 30
0.0
 10
54.457658
 20
209.397019
 30
0.0
 10
54.457658
 20
211.087415
 30
0.0
  0
SPLINE
  5
106
100
AcDbEntity
  8
text_bottom
 62
7
100
AcDbSpline
 70
8
 71
3
 72
8
 73
4
 74
0
 40
0
 40
0
 40
0
 40
0
 40
1
 40
1
 40
1
 40
1
 10
54.457658
 20
211.087415
 30
0.0
 10
54.457658
 20
212.777810
 30
0.0
 10
53.913449
 20
214.170889
 30
0.0
 10
52.825716
 20
215.265971
 30
0.0
  0
SPLINE
  5
107
100
AcDbEntity
  8
text_bottom
 62
7
100
AcDbSpline
 70
8
 71
3
 72
8
 73
4
 74
0
 40
0
 40
0
 40
0
 40
0
 40
1
 40
1
 40
1
 40
1
 10
52.825716
 20
215.265971
 30
0.0
 10
51.737983
 20
216.361053
 30
0.0
 10
50.348923
 20
216.908248
 30
0.0
 10
48.658529
 20
216.908248
 30
0.0
  0
SPLINE
  5
108
100
AcDbEntity
  8
text_bottom
 62
7
100
AcDbSpline
 70
8
 71
3
 72
8
 73
4
 74
0
 40
0
 40
0
 40
0
 40
0
 40
1
 40
1
 40
1
 40
1
 10
48.658529
 20
212.124044
 30
0.0
 10
48.945161
 20
212.124044
 30
0.0
 10
49.184193
 20
212.020806
 30
0.0
 10
49.375281
 20
211.815019
 30
0.0
  0
SPLINE
  5
109
100
AcDbEntity
  8
text_bottom
 62
7
100
AcDbSpline
 70
8
 71
3
 72
8
 73
4
 74
0
 40
0
 40
0
 40
0
 40
0
 40
1
 40
1
 40
1
 40
1
 10
49.375281
 20
211.815019
 30
0.0
 10
49.573719
 20
211.616581
 30
0.0
 10
49.672937
 20
211.374047
 30
0.0
 10
49.672937
 20
211.087415
 30
0.0
  0
SPLINE
  5
10a
100
AcDbEntity
  8
text_bottom
 62
7
100
AcDbSpline
 70
8
 71
3
 72
8
 73
4
 74
0
 40
0
 40
0
 40
0
 40
0
 40
1
 40
1
 40
1
 40
1
 10
49.672937
 20
211.087415
 30
0.0
 10
49.672937
 20
210.793433
 30
0.0
 10
49.577221
 20
210.547396
 30
0.0
 10
49.386133
 20
210.348958
 30
0.0
  0
SPLINE
  5
10b
100
AcDbEntity
  8
text_bottom
 62
7
100
AcDbSpline
 70
8
 71
3
 72
8
 73
4
 74
0
 40
0
 40
0
 40
0
 40
0
 40
1
 40
1
 40
1
 40
1
 10
49.386133
 20
210.348958
 30
0.0
 10
49.195044
 20
210.150520
 30
0.0
 10
48.952510
 20
210.051302
 30
0.0
 10
48.658529
 20
210.051302
 30
0.0
  0
SPLINE
  5
10c
100
AcDbEntity
  8
text_bottom
 62
7
100
AcDbSpline
 70
8
 71
3
 72
8
 73
4
 74
0
 40
0
 40
0
 40
0
 40
0
 40
1
 40
1
 40
1
 40
1
 10
48.658529
 20
210.051302
 30
0.0
 10
48.371896
 20
210.051302
 30
0.0
 10
48.129362
 20
210.150520
 30
0.0
 10
47.930924
 20
210.348958
 30
0.0
  0
SPLINE
  5
10d
100
AcDbEntity
  8
text_bottom
 62
7
100
AcDbSpline
 70
8
 71
3
 72
8
 73
4
 74
0
 40
0
 40
0
 40
0
 40
0
 40
1
 40
1
 40
1
 40
1
 10
47.930924
 20
210.348958
 30
0.0
 10
47.739836
 20
210.554745
 30
0.0
 10
47.644637
 20
210.800782
 30
0.0
 10
47.644637
 20
211.087415
 30
0.0
  0
SPLINE
  5
10e
100
AcDbEntity
  8
text_bottom
 62
7
100
AcDbSpline
 70
8
 71
3
 72
8
 73
4
 74
0
 40
0
 40
0
 40
0
 40
0
 40
1
 40
1
 40
1
 40
1
 10
47.644637
 20
211.087415
 30
0.0
 10
47.644637
 20
211.381396
 30
0.0
 10
47.739836
 20
211.627950
 30
0.0
 10
47.930924
 20
211.826388
 30
0.0
  0
SPLINE
  5
10f
100
AcDbEntity
  8
text_bottom
 62
7
100
AcDbSpline
 70
8
 71
3
 72
8
 73
4
 74
0
 40
0
 40
0
 40
0
 40
0
 40
1
 40
1
 40
1
 40
1
 10
47.930924
 20
211.826388
 30
0.0
 10
48.129362
 20
212.024826
 30
0.0
 10
48.371896
 20
212.124044
 30
0.0
 10
48.658529
 20
212.124044
 30
0.0
  0
LWPOLYLINE
  5
110
100
AcDbEntity
  8
text_bottom
 62
7
100
AcDbPolyline
 90
1
 70
1
 10
48.658529
 20
216.908248
 30
0.0
  0
SPLINE
  5
111
100
AcDbEntity
  8
text_bottom
 62
7
100
AcDbSpline
 70
8
 71
3
 72
8
 73
4
 74
0
 40
0
 40
0
 40
0
 40
0
 40
1
 40
1
 40
1
 40
1
 10
28.021190
 20
216.114632
 30
0.0
 10
28.021190
 20
216.063185
 30
0.0
 10
28.013840
 20
215.967641
 30
0.0
 10
27.999140
 20
215.828000
 30
0.0
  0
SPLINE
  5
112
100
AcDbEntity
  8
text_bottom
 62
7
100
AcDbSpline
 70
8
 71
3
 72
8
 73
4
 74
0
 40
0
 40
0
 40
0
 40
0
 40
1
 40
1
 40
1
 40
1
 10
27.999140
 20
215.828000
 30
0.0
 10
27.741906
 20
213.064571
 30
0.0
 10
27.613289
 20
211.319055
 30
0.0
 10
27.613289
 20
210.591450
 30
0.0
  0
SPLINE
  5
113
100
AcDbEntity
  8
text_bottom
 62
7
100
AcDbSpline
 70
8
 71
3
 72
8
 73
4
 74
0
 40
0
 40
0
 40
0
 40
0
 40
1
 40
1
 40
1
 40
1
 10
27.613289
 20
210.591450
 30
0.0
 10
27.613289
 20
210.099030
 30
0.0
 10
27.624312
 20
209.356726
 30
0.0
 10
27.646359
 20
208.364538
 30
0.0
  0
SPLINE
  5
114
100
AcDbEntity
  8
text_bottom
 62
7
100
AcDbSpline
 70
8
 71
3
 72
8
 73
4
 74
0
 40
0
 40
0
 40
0
 40
0
 40
1
 40
1
 40
1
 40
1
 10
27.646359
 20
208.364538
 30
0.0
 10
27.675759
 20
207.379699
 30
0.0
 10
27.690459
 20
206.637395
 30
0.0
 10
27.690459
 20
206.137626
 30
0.0
  0
SPLINE
  5
115
100
AcDbEntity
  8
text_bottom
 62
7
100
AcDbSpline
 70
8
 71
3
 72
8
 73
4
 74
0
 40
0
 40
0
 40
0
 40
0
 40
1
 40
1
 40
1
 40
1
 10
27.690459
 20
206.137626
 30
0.0
 10
27.690459
 20
205.895091
 30
0.0
 10
27.683109
 20
205.755449
 30
0.0
 10
27.668409
 20
205.718702
 30
0.0
  0
SPLINE
  5
116
100
AcDbEntity
  8
text_bottom
 62
7
100
AcDbSpline
 70
8
 71
3
 72
8
 73
4
 74
0
 40
0
 40
0
 40
0
 40
0
 40
1
 40
1
 40
1
 40
1
 10
27.668409
 20
205.718702
 30
0.0
 10
27.631662
 20
205.593759
 30
0.0
 10
27.517744
 20
205.531288
 30
0.0
 10
27.326655
 20
205.531288
 30
0.0
  0
SPLINE
  5
117
100
AcDbEntity
  8
text_bottom
 62
7
100
AcDbSpline
 70
8
 71
3
 72
8
 73
4
 74
0
 40
0
 40
0
 40
0
 40
0
 40
1
 40
1
 40
1
 40
1
 10
27.326655
 20
205.531288
 30
0.0
 10
27.069421
 20
205.531288
 30
0.0
 10
26.683570
 20
205.545988
 30
0.0
 10
26.169102
 20
205.575388
 30
0.0
  0
SPLINE
  5
118
100
AcDbEntity
  8
text_bottom
 62
7
100
AcDbSpline
 70
8
 71
3
 72
8
 73
4
 74
0
 40
0
 40
0
 40
0
 40
0
 40
1
 40
1
 40
1
 40
1
 10
26.169102
 20
205.575388
 30
0.0
 10
25.661983
 20
205.604788
 30
0.0
 10
25.279807
 20
205.619488
 30
0.0
 10
25.022573
 20
205.619488
 30
0.0
  0
SPLINE
  5
119
100
AcDbEntity
  8
text_bottom
 62
7
100
AcDbSpline
 70
8
 71
3
 72
8
 73
4
 74
0
 40
0
 40
0
 40
0
 40
0
 40
1
 40
1
 40
1
 40
1
 10
25.022573
 20
205.619488
 30
0.0
 10
24.765338
 20
205.619488
 30
0.0
 10
24.379487
 20
205.604788
 30
0.0
 10
23.865019
 20
205.575388
 30
0.0
  0
SPLINE
  5
11a
100
AcDbEntity
  8
text_bottom
 62
7
100
AcDbSpline
 70
8
 71
3
 72
8
 73
4
 74
0
 40
0
 40
0
 40
0
 40
0
 40
1
 40
1
 40
1
 40
1
 10
23.865019
 20
205.575388
 30
0.0
 10
23.357900
 20
205.545988
 30
0.0
 10
22.975724
 20
205.531288
 30
0.0
 10
22.718490
 20
205.531288
 30
0.0
  0
SPLINE
  5
11b
100
AcDbEntity
  8
text_bottom
 62
7
100
AcDbSpline
 70
8
 71
3
 72
8
 73
4
 74
0
 40
0
 40
0
 40
0
 40
0
 40
1
 40
1
 40
1
 40
1
 10
22.718490
 20
205.531288
 30
0.0
 10
22.527402
 20
205.531288
 30
0.0
 10
22.413484
 20
205.593759
 30
0.0
 10
22.376737
 20
205.718702
 30
0.0
  0
SPLINE
  5
11c
100
AcDbEntity
  8
text_bottom
 62
7
100
AcDbSpline
 70
8
 71
3
 72
8
 73
4
 74
0
 40
0
 40
0
 40
0
 40
0
 40
1
 40
1
 40
1
 40
1
 10
22.376737
 20
205.718702
 30
0.0
 10
22.362037
 20
205.755449
 30
0.0
 10
22.354687
 20
205.895090
 30
0.0
 10
22.354687
 20
206.137626
 30
0.0
  0
SPLINE
  5
11d
100
AcDbEntity
  8
text_bottom
 62
7
100
AcDbSpline
 70
8
 71
3
 72
8
 73
4
 74
0
 40
0
 40
0
 40
0
 40
0
 40
1
 40
1
 40
1
 40
1
 10
22.354687
 20
206.137626
 30
0.0
 10
22.354687
 20
206.637395
 30
0.0
 10
22.365710
 20
207.379699
 30
0.0
 10
22.387757
 20
208.364538
 30
0.0
  0
SPLINE
  5
11e
100
AcDbEntity
  8
text_bottom
 62
7
100
AcDbSpline
 70
8
 71
3
 72
8
 73
4
 74
0
 40
0
 40
0
 40
0
 40
0
 40
1
 40
1
 40
1
 40
1
 10
22.387757
 20
208.364538
 30
0.0
 10
22.409804
 20
209.356726
 30
0.0
 10
22.420827
 20
210.099030
 30
0.0
 10
22.420827
 20
210.591450
 30
0.0
  0
SPLINE
  5
11f
100
AcDbEntity
  8
text_bottom
 62
7
100
AcDbSpline
 70
8
 71
3
 72
8
 73
4
 74
0
 40
0
 40
0
 40
0
 40
0
 40
1
 40
1
 40
1
 40
1
 10
22.420827
 20
210.591450
 30
0.0
 10
22.420827
 20
211.708581
 30
0.0
 10
22.295885
 20
213.454097
 30
0.0
 10
22.046000
 20
215.828000
 30
0.0
  0
SPLINE
  5
120
100
AcDbEntity
  8
text_bottom
 62
7
100
AcDbSpline
 70
8
 71
3
 72
8
 73
4
 74
0
 40
0
 40
0
 40
0
 40
0
 40
1
 40
1
 40
1
 40
1
 10
22.046000
 20
215.828000
 30
0.0
 10
22.023953
 20
215.967641
 30
0.0
 10
22.012930
 20
216.066860
 30
0.0
 10
22.012930
 20
216.125657
 30
0.0
  0
SPLINE
  5
121
100
AcDbEntity
  8
text_bottom
 62
7
100
AcDbSpline
 70
8
 71
3
 72
8
 73
4
 74
0
 40
0
 40
0
 40
0
 40
0
 40
1
 40
1
 40
1
 40
1
 10
22.012930
 20
216.125657
 30
0.0
 10
22.012930
 20
216.316745
 30
0.0
 10
22.126848
 20
216.412289
 30
0.0
 10
22.354684
 20
216.412289
 30
0.0
  0
SPLINE
  5
122
100
AcDbEntity
  8
text_bottom
 62
7
100
AcDbSpline
 70
8
 71
3
 72
8
 73
4
 74
0
 40
0
 40
0
 40
0
 40
0
 40
1
 40
1
 40
1
 40
1
 10
22.354684
 20
216.412289
 30
0.0
 10
22.648666
 20
216.412289
 30
0.0
 10
23.089639
 20
216.364517
 30
0.0
 10
23.677602
 20
216.268973
 30
0.0
  0
SPLINE
  5
123
100
AcDbEntity
  8
text_bottom
 62
7
100
AcDbSpline
 70
8
 71
3
 72
8
 73
4
 74
0
 40
0
 40
0
 40
0
 40
0
 40
1
 40
1
 40
1
 40
1
 10
23.677602
 20
216.268973
 30
0.0
 10
24.272915
 20
216.173429
 30
0.0
 10
24.721238
 20
216.125657
 30
0.0
 10
25.022569
 20
216.125657
 30
0.0
  0
SPLINE
  5
124
100
AcDbEntity
  8
text_bottom
 62
7
100
AcDbSpline
 70
8
 71
3
 72
8
 73
4
 74
0
 40
0
 40
0
 40
0
 40
0
 40
1
 40
1
 40
1
 40
1
 10
25.022569
 20
216.125657
 30
0.0
 10
25.323900
 20
216.125657
 30
0.0
 10
25.768548
 20
216.173429
 30
0.0
 10
26.356511
 20
216.268973
 30
0.0
  0
SPLINE
  5
125
100
AcDbEntity
  8
text_bottom
 62
7
100
AcDbSpline
 70
8
 71
3
 72
8
 73
4
 74
0
 40
0
 40
0
 40
0
 40
0
 40
1
 40
1
 40
1
 40
1
 10
26.356511
 20
216.268973
 30
0.0
 10
26.951824
 20
216.364517
 30
0.0
 10
27.396472
 20
216.412289
 30
0.0
 10
27.690453
 20
216.412289
 30
0.0
  0
SPLINE
  5
126
100
AcDbEntity
  8
text_bottom
 62
7
100
AcDbSpline
 70
8
 71
3
 72
8
 73
4
 74
0
 40
0
 40
0
 40
0
 40
0
 40
1
 40
1
 40
1
 40
1
 10
27.690453
 20
216.412289
 30
0.0
 10
27.910940
 20
216.412289
 30
0.0
 10
28.021183
 20
216.313070
 30
0.0
 10
28.021183
 20
216.114632
 30
0.0
  0
LWPOLYLINE
  5
127
100
AcDbEntity
  8
text_bottom
 62
7
100
AcDbPolyline
 90
1
 70
1
 10
48.658529
 20
212.124044
 30
0.0
  0
SPLINE
  5
128
100
AcDbEntity
  8
text_bottom
 62
7
100
AcDbSpline
 70
8
 71
3
 72
8
 73
4
 74
0
 40
0
 40
0
 40
0
 40
0
 40
1
 40
1
 40
1
 40
1
 10
41.669294
 20
205.939188
 30
0.0
 10
41.669294
 20
205.637857
 30
0.0
 10
41.533327
 20
205.487191
 30
0.0
 10
41.261394
 20
205.487191
 30
0.0
  0
SPLINE
  5
129
100
AcDbEntity
  8
text_bottom
 62
7
100
AcDbSpline
 70
8
 71
3
 72
8
 73
4
 74
0
 40
0
 40
0
 40
0
 40
0
 40
1
 40
1
 40
1
 40
1
 10
41.261394
 20
205.487191
 30
0.0
 10
41.011509
 20
205.487191
 30
0.0
 10
40.640357
 20
205.498214
 30
0.0
 10
40.147938
 20
205.520261
 30
0.0
  0
SPLINE
  5
12a
100
AcDbEntity
  8
text_bottom
 62
7
100
AcDbSpline
 70
8
 71
3
 72
8
 73
4
 74
0
 40
0
 40
0
 40
0
 40
0
 40
1
 40
1
 40
1
 40
1
 10
40.147938
 20
205.520261
 30
0.0
 10
39.655519
 20
205.542308
 30
0.0
 10
39.288042
 20
205.553331
 30
0.0
 10
39.045507
 20
205.553331
 30
0.0
  0
SPLINE
  5
12b
100
AcDbEntity
  8
text_bottom
 62
7
100
AcDbSpline
 70
8
 71
3
 72
8
 73
4
 74
0
 40
0
 40
0
 40
0
 40
0
 40
1
 40
1
 40
1
 40
1
 10
39.045507
 20
205.553331
 30
0.0
 10
38.788272
 20
205.553331
 30
0.0
 10
38.402421
 20
205.549654
 30
0.0
 10
37.887953
 20
205.542301
 30
0.0
  0
SPLINE
  5
12c
100
AcDbEntity
  8
text_bottom
 62
7
100
AcDbSpline
 70
8
 71
3
 72
8
 73
4
 74
0
 40
0
 40
0
 40
0
 40
0
 40
1
 40
1
 40
1
 40
1
 10
37.887953
 20
205.542301
 30
0.0
 10
37.380834
 20
205.534954
 30
0.0
 10
36.998658
 20
205.531281
 30
0.0
 10
36.741424
 20
205.531281
 30
0.0
  0
SPLINE
  5
12d
100
AcDbEntity
  8
text_bottom
 62
7
100
AcDbSpline
 70
8
 71
3
 72
8
 73
4
 74
0
 40
0
 40
0
 40
0
 40
0
 40
1
 40
1
 40
1
 40
1
 10
36.741424
 20
205.531281
 30
0.0
 10
36.454792
 20
205.531281
 30
0.0
 10
36.311476
 20
205.718694
 30
0.0
 10
36.311476
 20
206.093521
 30
0.0
  0
SPLINE
  5
12e
100
AcDbEntity
  8
text_bottom
 62
7
100
AcDbSpline
 70
8
 71
3
 72
8
 73
4
 74
0
 40
0
 40
0
 40
0
 40
0
 40
1
 40
1
 40
1
 40
1
 10
36.311476
 20
206.093521
 30
0.0
 10
36.311476
 20
206.431600
 30
0.0
 10
36.318826
 20
206.931369
 30
0.0
 10
36.333526
 20
207.592828
 30
0.0
  0
SPLINE
  5
12f
100
AcDbEntity
  8
text_bottom
 62
7
100
AcDbSpline
 70
8
 71
3
 72
8
 73
4
 74
0
 40
0
 40
0
 40
0
 40
0
 40
1
 40
1
 40
1
 40
1
 10
36.333526
 20
207.592828
 30
0.0
 10
36.348226
 20
208.261637
 30
0.0
 10
36.355576
 20
208.765081
 30
0.0
 10
36.355576
 20
209.103160
 30
0.0
  0
SPLINE
  5
130
100
AcDbEntity
  8
text_bottom
 62
7
100
AcDbSpline
 70
8
 71
3
 72
8
 73
4
 74
0
 40
0
 40
0
 40
0
 40
0
 40
1
 40
1
 40
1
 40
1
 10
36.355576
 20
209.103160
 30
0.0
 10
36.355576
 20
209.353045
 30
0.0
 10
36.348226
 20
209.727871
 30
0.0
 10
36.333526
 20
210.227640
 30
0.0
  0
SPLINE
  5
131
100
AcDbEntity
  8
text_bottom
 62
7
100
AcDbSpline
 70
8
 71
3
 72
8
 73
4
 74
0
 40
0
 40
0
 40
0
 40
0
 40
1
 40
1
 40
1
 40
1
 10
36.333526
 20
210.227640
 30
0.0
 10
36.318826
 20
210.727409
 30
0.0
 10
36.311476
 20
211.102236
 30
0.0
 10
36.311476
 20
211.352120
 30
0.0
  0
SPLINE
  5
132
100
AcDbEntity
  8
text_bottom
 62
7
100
AcDbSpline
 70
8
 71
3
 72
8
 73
4
 74
0
 40
0
 40
0
 40
0
 40
0
 40
1
 40
1
 40
1
 40
1
 10
36.311476
 20
211.352120
 30
0.0
 10
36.311476
 20
211.778394
 30
0.0
 10
36.102014
 20
211.991531
 30
0.0
 10
35.683090
 20
211.991531
 30
0.0
  0
SPLINE
  5
133
100
AcDbEntity
  8
text_bottom
 62
7
100
AcDbSpline
 70
8
 71
3
 72
8
 73
4
 74
0
 40
0
 40
0
 40
0
 40
0
 40
1
 40
1
 40
1
 40
1
 10
35.683090
 20
211.991531
 30
0.0
 10
35.256817
 20
211.991531
 30
0.0
 10
35.043680
 20
211.785744
 30
0.0
 10
35.043680
 20
211.374169
 30
0.0
  0
LWPOLYLINE
  5
134
100
AcDbEntity
  8
text_bottom
 62
7
100
AcDbPolyline
 90
1
 70
1
 10
28.021183
 20
216.114632
 30
0.0
  0
SPLINE
  5
135
100
AcDbEntity
  8
text_bottom
 62
7
100
AcDbSpline
 70
8
 71
3
 72
8
 73
4
 74
0
 40
0
 40
0
 40
0
 40
0
 40
1
 40
1
 40
1
 40
1
 10
35.043680
 20
206.049424
 30
0.0
 10
35.043680
 20
205.674597
 30
0.0
 10
34.885665
 20
205.487184
 30
0.0
 10
34.569634
 20
205.487184
 30
0.0
  0
SPLINE
  5
136
100
AcDbEntity
  8
text_bottom
 62
7
100
AcDbSpline
 70
8
 71
3
 72
8
 73
4
 74
0
 40
0
 40
0
 40
0
 40
0
 40
1
 40
1
 40
1
 40
1
 10
34.569634
 20
205.487184
 30
0.0
 10
34.334449
 20
205.487184
 30
0.0
 10
33.977996
 20
205.498207
 30
0.0
 10
33.500275
 20
205.520254
 30
0.0
  0
SPLINE
  5
137
100
AcDbEntity
  8
text_bottom
 62
7
100
AcDbSpline
 70
8
 71
3
 72
8
 73
4
 74
0
 40
0
 40
0
 40
0
 40
0
 40
1
 40
1
 40
1
 40
1
 10
33.500275
 20
205.520254
 30
0.0
 10
33.022555
 20
205.542301
 30
0.0
 10
32.666102
 20
205.553324
 30
0.0
 10
32.430917
 20
205.553324
 30
0.0
  0
SPLINE
  5
138
100
AcDbEntity
  8
text_bottom
 62
7
100
AcDbSpline
 70
8
 71
3
 72
8
 73
4
 74
0
 40
0
 40
0
 40
0
 40
0
 40
1
 40
1
 40
1
 40
1
 10
32.430917
 20
205.553324
 30
0.0
 10
32.181032
 20
205.553324
 30
0.0
 10
31.802531
 20
205.549647
 30
0.0
 10
31.295412
 20
205.542294
 30
0.0
  0
SPLINE
  5
139
100
AcDbEntity
  8
text_bottom
 62
7
100
AcDbSpline
 70
8
 71
3
 72
8
 73
4
 74
0
 40
0
 40
0
 40
0
 40
0
 40
1
 40
1
 40
1
 40
1
 10
31.295412
 20
205.542294
 30
0.0
 10
30.795643
 20
205.534947
 30
0.0
 10
30.420816
 20
205.531274
 30
0.0
 10
30.170932
 20
205.531274
 30
0.0
  0
SPLINE
  5
13a
100
AcDbEntity
  8
text_bottom
 62
7
100
AcDbSpline
 70
8
 71
3
 72
8
 73
4
 74
0
 40
0
 40
0
 40
0
 40
0
 40
1
 40
1
 40
1
 40
1
 10
30.170932
 20
205.531274
 30
0.0
 10
29.854901
 20
205.531274
 30
0.0
 10
29.696886
 20
205.689289
 30
0.0
 10
29.696886
 20
206.005320
 30
0.0
  0
LWPOLYLINE
  5
13b
100
AcDbEntity
  8
text_bottom
 62
7
100
AcDbPolyline
 90
2
 70
0
 10
35.043680
 20
211.374169
 30
0.0
 10
35.043680
 20
206.049424
 30
0.0
  0
SPLINE
  5
13c
100
AcDbEntity
  8
text_bottom
 62
7
100
AcDbSpline
 70
8
 71
3
 72
8
 73
4
 74
0
 40
0
 40
0
 40
0
 40
0
 40
1
 40
1
 40
1
 40
1
 10
29.696886
 20
211.153690
 30
0.0
 10
29.696886
 20
212.748541
 30
0.0
 10
29.524172
 20
214.178027
 30
0.0
 10
29.178743
 20
215.442149
 30
0.0
  0
SPLINE
  5
13d
100
AcDbEntity
  8
text_bottom
 62
7
100
AcDbSpline
 70
8
 71
3
 72
8
 73
4
 74
0
 40
0
 40
0
 40
0
 40
0
 40
1
 40
1
 40
1
 40
1
 10
29.178743
 20
215.442149
 30
0.0
 10
29.156696
 20
215.522994
 30
0.0
 10
29.145673
 20
215.592814
 30
0.0
 10
29.145673
 20
215.651611
 30
0.0
  0
SPLINE
  5
13e
100
AcDbEntity
  8
text_bottom
 62
7
100
AcDbSpline
 70
8
 71
3
 72
8
 73
4
 74
0
 40
0
 40
0
 40
0
 40
0
 40
1
 40
1
 40
1
 40
1
 10
29.145673
 20
215.651611
 30
0.0
 10
29.145673
 20
215.791252
 30
0.0
 10
29.208144
 20
215.886796
 30
0.0
 10
29.333087
 20
215.938243
 30
0.0
  0
SPLINE
  5
13f
100
AcDbEntity
  8
text_bottom
 62
7
100
AcDbSpline
 70
8
 71
3
 72
8
 73
4
 74
0
 40
0
 40
0
 40
0
 40
0
 40
1
 40
1
 40
1
 40
1
 10
29.333087
 20
215.938243
 30
0.0
 10
30.082740
 20
216.033787
 30
0.0
 10
30.972035
 20
216.155055
 30
0.0
 10
32.000971
 20
216.302046
 30
0.0
  0
SPLINE
  5
140
100
AcDbEntity
  8
text_bottom
 62
7
100
AcDbSpline
 70
8
 71
3
 72
8
 73
4
 74
0
 40
0
 40
0
 40
0
 40
0
 40
1
 40
1
 40
1
 40
1
 10
32.000971
 20
216.302046
 30
0.0
 10
33.522327
 20
216.596027
 30
0.0
 10
34.396923
 20
216.743018
 30
0.0
 10
34.624759
 20
216.743018
 30
0.0
  0
SPLINE
  5
141
100
AcDbEntity
  8
text_bottom
 62
7
100
AcDbSpline
 70
8
 71
3
 72
8
 73
4
 74
0
 40
0
 40
0
 40
0
 40
0
 40
1
 40
1
 40
1
 40
1
 10
34.624759
 20
216.743018
 30
0.0
 10
34.771750
 20
216.743018
 30
0.0
 10
34.863619
 20
216.500483
 30
0.0
 10
34.900366
 20
216.015413
 30
0.0
  0
SPLINE
  5
142
100
AcDbEntity
  8
text_bottom
 62
7
100
AcDbSpline
 70
8
 71
3
 72
8
 73
4
 74
0
 40
0
 40
0
 40
0
 40
0
 40
1
 40
1
 40
1
 40
1
 10
34.900366
 20
216.015413
 30
0.0
 10
34.937113
 20
215.530343
 30
0.0
 10
34.995909
 20
215.287808
 30
0.0
 10
35.076756
 20
215.287808
 30
0.0
  0
SPLINE
  5
143
100
AcDbEntity
  8
text_bottom
 62
7
100
AcDbSpline
 70
8
 71
3
 72
8
 73
4
 74
0
 40
0
 40
0
 40
0
 40
0
 40
1
 40
1
 40
1
 40
1
 10
35.076756
 20
215.287808
 30
0.0
 10
35.017963
 20
215.287808
 30
0.0
 10
35.396464
 20
215.500945
 30
0.0
 10
36.212260
 20
215.927219
 30
0.0
  0
SPLINE
  5
144
100
AcDbEntity
  8
text_bottom
 62
7
100
AcDbSpline
 70
8
 71
3
 72
8
 73
4
 74
0
 40
0
 40
0
 40
0
 40
0
 40
1
 40
1
 40
1
 40
1
 10
36.212260
 20
215.927219
 30
0.0
 10
37.035409
 20
216.353492
 30
0.0
 10
37.715242
 20
216.566629
 30
0.0
 10
38.251759
 20
216.566629
 30
0.0
  0
SPLINE
  5
145
100
AcDbEntity
  8
text_bottom
 62
7
100
AcDbSpline
 70
8
 71
3
 72
8
 73
4
 74
0
 40
0
 40
0
 40
0
 40
0
 40
1
 40
1
 40
1
 40
1
 10
38.251759
 20
216.566629
 30
0.0
 10
39.141054
 20
216.566629
 30
0.0
 10
39.909081
 20
216.357167
 30
0.0
 10
40.555841
 20
215.938243
 30
0.0
  0
SPLINE
  5
146
100
AcDbEntity
  8
text_bottom
 62
7
100
AcDbSpline
 70
8
 71
3
 72
8
 73
4
 74
0
 40
0
 40
0
 40
0
 40
0
 40
1
 40
1
 40
1
 40
1
 10
40.555841
 20
215.938243
 30
0.0
 10
41.298145
 20
215.445824
 30
0.0
 10
41.669297
 20
214.777015
 30
0.0
 10
41.669297
 20
213.931818
 30
0.0
  0
LWPOLYLINE
  5
147
100
AcDbEntity
  8
text_bottom
 62
7
100
AcDbPolyline
 90
2
 70
0
 10
29.696886
 20
206.005320
 30
0.0
 10
29.696886
 20
211.153690
 30
0.0
  0
SPLINE
  5
148
100
AcDbEntity
  8
text_bottom
 62
7
100
AcDbSpline
 70
8
 71
3
 72
8
 73
4
 74
0
 40
0
 40
0
 40
0
 40
0
 40
1
 40
1
 40
1
 40
1
 10
67.234685
 20
213.457772
 30
0.0
 10
67.234685
 20
211.951115
 30
0.0
 10
67.190588
 20
211.083869
 30
0.0
 10
67.102393
 20
210.856033
 30
0.0
  0
SPLINE
  5
149
100
AcDbEntity
  8
text_bottom
 62
7
100
AcDbSpline
 70
8
 71
3
 72
8
 73
4
 74
0
 40
0
 40
0
 40
0
 40
0
 40
1
 40
1
 40
1
 40
1
 10
67.102393
 20
210.856033
 30
0.0
 10
66.859858
 20
210.246021
 30
0.0
 10
66.304968
 20
209.257507
 30
0.0
 10
65.437721
 20
207.890492
 30
0.0
  0
SPLINE
  5
14a
100
AcDbEntity
  8
text_bottom
 62
7
100
AcDbSpline
 70
8
 71
3
 72
8
 73
4
 74
0
 40
0
 40
0
 40
0
 40
0
 40
1
 40
1
 40
1
 40
1
 10
65.437721
 20
207.890492
 30
0.0
 10
64.445533
 20
206.317689
 30
0.0
 10
63.787749
 20
205.531288
 30
0.0
 10
63.464369
 20
205.531288
 30
0.0
  0
SPLINE
  5
14b
100
AcDbEntity
  8
text_bottom
 62
7
100
AcDbSpline
 70
8
 71
3
 72
8
 73
4
 74
0
 40
0
 40
0
 40
0
 40
0
 40
1
 40
1
 40
1
 40
1
 10
63.464369
 20
205.531288
 30
0.0
 10
63.229184
 20
205.531288
 30
0.0
 10
62.872731
 20
205.545988
 30
0.0
 10
62.395010
 20
205.575388
 30
0.0
  0
SPLINE
  5
14c
100
AcDbEntity
  8
text_bottom
 62
7
100
AcDbSpline
 70
8
 71
3
 72
8
 73
4
 74
0
 40
0
 40
0
 40
0
 40
0
 40
1
 40
1
 40
1
 40
1
 10
62.395010
 20
205.575388
 30
0.0
 10
61.917289
 20
205.604788
 30
0.0
 10
61.560836
 20
205.619488
 30
0.0
 10
61.325651
 20
205.619488
 30
0.0
  0
SPLINE
  5
14d
100
AcDbEntity
  8
text_bottom
 62
7
100
AcDbSpline
 70
8
 71
3
 72
8
 73
4
 74
0
 40
0
 40
0
 40
0
 40
0
 40
1
 40
1
 40
1
 40
1
 10
61.325651
 20
205.619488
 30
0.0
 10
61.075766
 20
205.619488
 30
0.0
 10
60.704614
 20
205.604788
 30
0.0
 10
60.212195
 20
205.575388
 30
0.0
  0
SPLINE
  5
14e
100
AcDbEntity
  8
text_bottom
 62
7
100
AcDbSpline
 70
8
 71
3
 72
8
 73
4
 74
0
 40
0
 40
0
 40
0
 40
0
 40
1
 40
1
 40
1
 40
1
 10
60.212195
 20
205.575388
 30
0.0
 10
59.727125
 20
205.545988
 30
0.0
 10
59.359648
 20
205.531288
 30
0.0
 10
59.109764
 20
205.531288
 30
0.0
  0
SPLINE
  5
14f
100
AcDbEntity
  8
text_bottom
 62
7
100
AcDbSpline
 70
8
 71
3
 72
8
 73
4
 74
0
 40
0
 40
0
 40
0
 40
0
 40
1
 40
1
 40
1
 40
1
 10
59.109764
 20
205.531288
 30
0.0
 10
58.786384
 20
205.531288
 30
0.0
 10
58.132274
 20
206.314015
 30
0.0
 10
57.147435
 20
207.879468
 30
0.0
  0
SPLINE
  5
150
100
AcDbEntity
  8
text_bottom
 62
7
100
AcDbSpline
 70
8
 71
3
 72
8
 73
4
 74
0
 40
0
 40
0
 40
0
 40
0
 40
1
 40
1
 40
1
 40
1
 10
57.147435
 20
207.879468
 30
0.0
 10
56.302238
 20
209.224435
 30
0.0
 10
55.743672
 20
210.216623
 30
0.0
 10
55.471739
 20
210.856033
 30
0.0
  0
SPLINE
  5
151
100
AcDbEntity
  8
text_bottom
 62
7
100
AcDbSpline
 70
8
 71
3
 72
8
 73
4
 74
0
 40
0
 40
0
 40
0
 40
0
 40
1
 40
1
 40
1
 40
1
 10
55.471739
 20
210.856033
 30
0.0
 10
55.265952
 20
211.363152
 30
0.0
 10
55.163058
 20
212.230398
 30
0.0
 10
55.163058
 20
213.457772
 30
0.0
  0
SPLINE
  5
152
100
AcDbEntity
  8
text_bottom
 62
7
100
AcDbSpline
 70
8
 71
3
 72
8
 73
4
 74
0
 40
0
 40
0
 40
0
 40
0
 40
1
 40
1
 40
1
 40
1
 10
55.163058
 20
213.457772
 30
0.0
 10
55.163058
 20
213.737055
 30
0.0
 10
55.170408
 20
214.155979
 30
0.0
 10
55.185108
 20
214.714544
 30
0.0
  0
SPLINE
  5
153
100
AcDbEntity
  8
text_bottom
 62
7
100
AcDbSpline
 70
8
 71
3
 72
8
 73
4
 74
0
 40
0
 40
0
 40
0
 40
0
 40
1
 40
1
 40
1
 40
1
 10
55.185108
 20
214.714544
 30
0.0
 10
55.199808
 20
215.280459
 30
0.0
 10
55.207158
 20
215.703057
 30
0.0
 10
55.207158
 20
215.982340
 30
0.0
  0
SPLINE
  5
154
100
AcDbEntity
  8
text_bottom
 62
7
100
AcDbSpline
 70
8
 71
3
 72
8
 73
4
 74
0
 40
0
 40
0
 40
0
 40
0
 40
1
 40
1
 40
1
 40
1
 10
55.207158
 20
215.982340
 30
0.0
 10
55.207158
 20
216.224875
 30
0.0
 10
55.365173
 20
216.346143
 30
0.0
 10
55.681204
 20
216.346143
 30
0.0
  0
SPLINE
  5
155
100
AcDbEntity
  8
text_bottom
 62
7
100
AcDbSpline
 70
8
 71
3
 72
8
 73
4
 74
0
 40
0
 40
0
 40
0
 40
0
 40
1
 40
1
 40
1
 40
1
 10
55.681204
 20
216.346143
 30
0.0
 10
55.960487
 20
216.346143
 30
0.0
 10
56.383085
 20
216.331443
 30
0.0
 10
56.949000
 20
216.302043
 30
0.0
  0
SPLINE
  5
156
100
AcDbEntity
  8
text_bottom
 62
7
100
AcDbSpline
 70
8
 71
3
 72
8
 73
4
 74
0
 40
0
 40
0
 40
0
 40
0
 40
1
 40
1
 40
1
 40
1
 10
56.949000
 20
216.302043
 30
0.0
 10
57.522265
 20
216.272643
 30
0.0
 10
57.948538
 20
216.257943
 30
0.0
 10
58.227821
 20
216.257943
 30
0.0
  0
SPLINE
  5
157
100
AcDbEntity
  8
text_bottom
 62
7
100
AcDbSpline
 70
8
 71
3
 72
8
 73
4
 74
0
 40
0
 40
0
 40
0
 40
0
 40
1
 40
1
 40
1
 40
1
 10
58.227821
 20
216.257943
 30
0.0
 10
58.470356
 20
216.257943
 30
0.0
 10
58.826809
 20
216.272643
 30
0.0
 10
59.297180
 20
216.302043
 30
0.0
  0
SPLINE
  5
158
100
AcDbEntity
  8
text_bottom
 62
7
100
AcDbSpline
 70
8
 71
3
 72
8
 73
4
 74
0
 40
0
 40
0
 40
0
 40
0
 40
1
 40
1
 40
1
 40
1
 10
59.297180
 20
216.302043
 30
0.0
 10
59.774901
 20
216.331443
 30
0.0
 10
60.135028
 20
216.346143
 30
0.0
 10
60.377563
 20
216.346143
 30
0.0
  0
SPLINE
  5
159
100
AcDbEntity
  8
text_bottom
 62
7
100
AcDbSpline
 70
8
 71
3
 72
8
 73
4
 74
0
 40
0
 40
0
 40
0
 40
0
 40
1
 40
1
 40
1
 40
1
 10
60.377563
 20
216.346143
 30
0.0
 10
60.568651
 20
216.346143
 30
0.0
 10
60.664195
 20
216.210176
 30
0.0
 10
60.664195
 20
215.938243
 30
0.0
  0
SPLINE
  5
15a
100
AcDbEntity
  8
text_bottom
 62
7
100
AcDbSpline
 70
8
 71
3
 72
8
 73
4
 74
0
 40
0
 40
0
 40
0
 40
0
 40
1
 40
1
 40
1
 40
1
 10
60.664195
 20
215.938243
 30
0.0
 10
60.664195
 20
215.636912
 30
0.0
 10
60.649495
 20
215.177565
 30
0.0
 10
60.620095
 20
214.560204
 30
0.0
  0
SPLINE
  5
15b
100
AcDbEntity
  8
text_bottom
 62
7
100
AcDbSpline
 70
8
 71
3
 72
8
 73
4
 74
0
 40
0
 40
0
 40
0
 40
0
 40
1
 40
1
 40
1
 40
1
 10
60.620095
 20
214.560204
 30
0.0
 10
60.590695
 20
213.950191
 30
0.0
 10
60.575995
 20
213.490845
 30
0.0
 10
60.575995
 20
213.182164
 30
0.0
  0
SPLINE
  5
15c
100
AcDbEntity
  8
text_bottom
 62
7
100
AcDbSpline
 70
8
 71
3
 72
8
 73
4
 74
0
 40
0
 40
0
 40
0
 40
0
 40
1
 40
1
 40
1
 40
1
 10
60.575995
 20
213.182164
 30
0.0
 10
60.575995
 20
211.528517
 30
0.0
 10
60.803831
 20
210.701693
 30
0.0
 10
61.259502
 20
210.701693
 30
0.0
  0
SPLINE
  5
15d
100
AcDbEntity
  8
text_bottom
 62
7
100
AcDbSpline
 70
8
 71
3
 72
8
 73
4
 74
0
 40
0
 40
0
 40
0
 40
0
 40
1
 40
1
 40
1
 40
1
 10
61.259502
 20
210.701693
 30
0.0
 10
61.781320
 20
210.701693
 30
0.0
 10
62.042229
 20
211.822498
 30
0.0
 10
62.042229
 20
214.064109
 30
0.0
  0
SPLINE
  5
15e
100
AcDbEntity
  8
text_bottom
 62
7
100
AcDbSpline
 70
8
 71
3
 72
8
 73
4
 74
0
 40
0
 40
0
 40
0
 40
0
 40
1
 40
1
 40
1
 40
1
 10
62.042229
 20
214.064109
 30
0.0
 10
62.042229
 20
214.277246
 30
0.0
 10
62.020179
 20
214.589602
 30
0.0
 10
61.976079
 20
215.001176
 30
0.0
  0
SPLINE
  5
15f
100
AcDbEntity
  8
text_bottom
 62
7
100
AcDbSpline
 70
8
 71
3
 72
8
 73
4
 74
0
 40
0
 40
0
 40
0
 40
0
 40
1
 40
1
 40
1
 40
1
 10
61.976079
 20
215.001176
 30
0.0
 10
61.931979
 20
215.420100
 30
0.0
 10
61.909929
 20
215.732456
 30
0.0
 10
61.909929
 20
215.938243
 30
0.0
  0
SPLINE
  5
160
100
AcDbEntity
  8
text_bottom
 62
7
100
AcDbSpline
 70
8
 71
3
 72
8
 73
4
 74
0
 40
0
 40
0
 40
0
 40
0
 40
1
 40
1
 40
1
 40
1
 10
61.909929
 20
215.938243
 30
0.0
 10
61.909929
 20
216.210176
 30
0.0
 10
62.009148
 20
216.346143
 30
0.0
 10
62.207586
 20
216.346143
 30
0.0
  0
SPLINE
  5
161
100
AcDbEntity
  8
text_bottom
 62
7
100
AcDbSpline
 70
8
 71
3
 72
8
 73
4
 74
0
 40
0
 40
0
 40
0
 40
0
 40
1
 40
1
 40
1
 40
1
 10
62.207586
 20
216.346143
 30
0.0
 10
62.442771
 20
216.346143
 30
0.0
 10
62.799224
 20
216.331443
 30
0.0
 10
63.276944
 20
216.302043
 30
0.0
  0
SPLINE
  5
162
100
AcDbEntity
  8
text_bottom
 62
7
100
AcDbSpline
 70
8
 71
3
 72
8
 73
4
 74
0
 40
0
 40
0
 40
0
 40
0
 40
1
 40
1
 40
1
 40
1
 10
63.276944
 20
216.302043
 30
0.0
 10
63.754665
 20
216.272643
 30
0.0
 10
64.111118
 20
216.257943
 30
0.0
 10
64.346303
 20
216.257943
 30
0.0
  0
SPLINE
  5
163
100
AcDbEntity
  8
text_bottom
 62
7
100
AcDbSpline
 70
8
 71
3
 72
8
 73
4
 74
0
 40
0
 40
0
 40
0
 40
0
 40
1
 40
1
 40
1
 40
1
 10
64.346303
 20
216.257943
 30
0.0
 10
64.596188
 20
216.257943
 30
0.0
 10
64.967340
 20
216.272643
 30
0.0
 10
65.459759
 20
216.302043
 30
0.0
  0
SPLINE
  5
164
100
AcDbEntity
  8
text_bottom
 62
7
100
AcDbSpline
 70
8
 71
3
 72
8
 73
4
 74
0
 40
0
 40
0
 40
0
 40
0
 40
1
 40
1
 40
1
 40
1
 10
65.459759
 20
216.302043
 30
0.0
 10
65.959528
 20
216.331443
 30
0.0
 10
66.334355
 20
216.346143
 30
0.0
 10
66.584239
 20
216.346143
 30
0.0
  0
SPLINE
  5
165
100
AcDbEntity
  8
text_bottom
 62
7
100
AcDbSpline
 70
8
 71
3
 72
8
 73
4
 74
0
 40
0
 40
0
 40
0
 40
0
 40
1
 40
1
 40
1
 40
1
 10
66.584239
 20
216.346143
 30
0.0
 10
66.753279
 20
216.346143
 30
0.0
 10
66.859848
 20
216.327770
 30
0.0
 10
66.903945
 20
216.291023
 30
0.0
  0
SPLINE
  5
166
100
AcDbEntity
  8
text_bottom
 62
7
100
AcDbSpline
 70
8
 71
3
 72
8
 73
4
 74
0
 40
0
 40
0
 40
0
 40
0
 40
1
 40
1
 40
1
 40
1
 10
66.903945
 20
216.291023
 30
0.0
 10
66.948045
 20
216.254276
 30
0.0
 10
66.999492
 20
216.151383
 30
0.0
 10
67.058285
 20
215.982342
 30
0.0
  0
SPLINE
  5
167
100
AcDbEntity
  8
text_bottom
 62
7
100
AcDbSpline
 70
8
 71
3
 72
8
 73
4
 74
0
 40
0
 40
0
 40
0
 40
0
 40
1
 40
1
 40
1
 40
1
 10
67.058285
 20
215.982342
 30
0.0
 10
67.175878
 20
215.622215
 30
0.0
 10
67.234674
 20
214.780692
 30
0.0
 10
67.234674
 20
213.457774
 30
0.0
  0
LWPOLYLINE
  5
168
100
AcDbEntity
  8
text_bottom
 62
7
100
AcDbPolyline
 90
2
 70
0
 10
41.669297
 20
213.931818
 30
0.0
 10
41.669294
 20
205.939188
 30
0.0
  0
SPLINE
  5
169
100
AcDbEntity
  8
text_bottom
 62
7
100
AcDbSpline
 70
8
 71
3
 72
8
 73
4
 74
0
 40
0
 40
0
 40
0
 40
0
 40
1
 40
1
 40
1
 40
1
 10
102.699670
 20
216.555815
 30
0.0
 10
102.537950
 20
216.555815
 30
0.0
 10
102.435230
 20
216.427026
 30
0.0
 10
102.391170
 20
216.169792
 30
0.0
  0
SPLINE
  5
16a
100
AcDbEntity
  8
text_bottom
 62
7
100
AcDbSpline
 70
8
 71
3
 72
8
 73
4
 74
0
 40
0
 40
0
 40
0
 40
0
 40
1
 40
1
 40
1
 40
1
 10
102.391170
 20
216.169792
 30
0.0
 10
102.354420
 20
215.912558
 30
0.0
 10
102.306820
 20
215.783769
 30
0.0
 10
102.248020
 20
215.783769
 30
0.0
  0
SPLINE
  5
16b
100
AcDbEntity
  8
text_bottom
 62
7
100
AcDbSpline
 70
8
 71
3
 72
8
 73
4
 74
0
 40
0
 40
0
 40
0
 40
0
 40
1
 40
1
 40
1
 40
1
 10
102.248020
 20
215.783769
 30
0.0
 10
102.262720
 20
215.783769
 30
0.0
 10
101.931990
 20
215.901533
 30
0.0
 10
101.255830
 20
216.136719
 30
0.0
  0
SPLINE
  5
16c
100
AcDbEntity
  8
text_bottom
 62
7
100
AcDbSpline
 70
8
 71
3
 72
8
 73
4
 74
0
 40
0
 40
0
 40
0
 40
0
 40
1
 40
1
 40
1
 40
1
 10
101.255830
 20
216.136719
 30
0.0
 10
100.579680
 20
216.379253
 30
0.0
 10
100.054020
 20
216.500521
 30
0.0
 10
99.679187
 20
216.500521
 30
0.0
  0
SPLINE
  5
16d
100
AcDbEntity
  8
text_bottom
 62
7
100
AcDbSpline
 70
8
 71
3
 72
8
 73
4
 74
0
 40
0
 40
0
 40
0
 40
0
 40
1
 40
1
 40
1
 40
1
 10
99.679187
 20
216.500521
 30
0.0
 10
97.878549
 20
216.500521
 30
0.0
 10
96.577684
 20
216.026477
 30
0.0
 10
95.776583
 20
215.078385
 30
0.0
  0
SPLINE
  5
16e
100
AcDbEntity
  8
text_bottom
 62
7
100
AcDbSpline
 70
8
 71
3
 72
8
 73
4
 74
0
 40
0
 40
0
 40
0
 40
0
 40
1
 40
1
 40
1
 40
1
 10
95.776583
 20
215.078385
 30
0.0
 10
94.813793
 20
213.931857
 30
0.0
 10
94.332227
 20
212.495197
 30
0.0
 10
94.332227
 20
210.768054
 30
0.0
  0
SPLINE
  5
16f
100
AcDbEntity
  8
text_bottom
 62
7
100
AcDbSpline
 70
8
 71
3
 72
8
 73
4
 74
0
 40
0
 40
0
 40
0
 40
0
 40
1
 40
1
 40
1
 40
1
 10
94.332227
 20
210.768054
 30
0.0
 10
94.332227
 20
209.283446
 30
0.0
 10
94.758672
 20
208.015654
 30
0.0
 10
95.611218
 20
206.964669
 30
0.0
  0
SPLINE
  5
170
100
AcDbEntity
  8
text_bottom
 62
7
100
AcDbSpline
 70
8
 71
3
 72
8
 73
4
 74
0
 40
0
 40
0
 40
0
 40
0
 40
1
 40
1
 40
1
 40
1
 10
95.611218
 20
206.964669
 30
0.0
 10
96.522562
 20
205.840189
 30
0.0
 10
97.698658
 20
205.277950
 30
0.0
 10
99.139168
 20
205.277950
 30
0.0
  0
SPLINE
  5
171
100
AcDbEntity
  8
text_bottom
 62
7
100
AcDbSpline
 70
8
 71
3
 72
8
 73
4
 74
0
 40
0
 40
0
 40
0
 40
0
 40
1
 40
1
 40
1
 40
1
 10
99.139168
 20
205.277950
 30
0.0
 10
99.587490
 20
205.277950
 30
0.0
 10
100.149730
 20
205.450319
 30
0.0
 10
100.825890
 20
205.795748
 30
0.0
  0
SPLINE
  5
172
100
AcDbEntity
  8
text_bottom
 62
7
100
AcDbSpline
 70
8
 71
3
 72
8
 73
4
 74
0
 40
0
 40
0
 40
0
 40
0
 40
1
 40
1
 40
1
 40
1
 10
100.825890
 20
205.795748
 30
0.0
 10
101.502030
 20
206.148526
 30
0.0
 10
101.821730
 20
206.324915
 30
0.0
 10
101.785000
 20
206.324915
 30
0.0
  0
SPLINE
  5
173
100
AcDbEntity
  8
text_bottom
 62
7
100
AcDbSpline
 70
8
 71
3
 72
8
 73
4
 74
0
 40
0
 40
0
 40
0
 40
0
 40
1
 40
1
 40
1
 40
1
 10
101.785000
 20
206.324915
 30
0.0
 10
101.873230
 20
206.324915
 30
0.0
 10
101.924330
 20
206.178097
 30
0.0
 10
101.939000
 20
205.884115
 30
0.0
  0
SPLINE
  5
174
100
AcDbEntity
  8
text_bottom
 62
7
100
AcDbSpline
 70
8
 71
3
 72
8
 73
4
 74
0
 40
0
 40
0
 40
0
 40
0
 40
1
 40
1
 40
1
 40
1
 10
101.939000
 20
205.884115
 30
0.0
 10
101.953700
 20
205.590133
 30
0.0
 10
102.112050
 20
205.443315
 30
0.0
 10
102.413390
 20
205.443315
 30
0.0
  0
SPLINE
  5
175
100
AcDbEntity
  8
text_bottom
 62
7
100
AcDbSpline
 70
8
 71
3
 72
8
 73
4
 74
0
 40
0
 40
0
 40
0
 40
0
 40
1
 40
1
 40
1
 40
1
 10
102.413390
 20
205.443315
 30
0.0
 10
102.655920
 20
205.443315
 30
0.0
 10
103.019730
 20
205.457840
 30
0.0
 10
103.504790
 20
205.487240
 30
0.0
  0
SPLINE
  5
176
100
AcDbEntity
  8
text_bottom
 62
7
100
AcDbSpline
 70
8
 71
3
 72
8
 73
4
 74
0
 40
0
 40
0
 40
0
 40
0
 40
1
 40
1
 40
1
 40
1
 10
103.504790
 20
205.487240
 30
0.0
 10
103.997210
 20
205.516640
 30
0.0
 10
104.364520
 20
205.531165
 30
0.0
 10
104.607050
 20
205.531165
 30
0.0
  0
LWPOLYLINE
  5
177
100
AcDbEntity
  8
text_bottom
 62
7
100
AcDbPolyline
 90
1
 70
1
 10
67.234674
 20
213.457774
 30
0.0
  0
SPLINE
  5
178
100
AcDbEntity
  8
text_bottom
 62
7
100
AcDbSpline
 70
8
 71
3
 72
8
 73
4
 74
0
 40
0
 40
0
 40
0
 40
0
 40
1
 40
1
 40
1
 40
1
 10
106.591430
 20
205.531165
 30
0.0
 10
106.907460
 20
205.553213
 30
0.0
 10
107.065300
 20
205.711572
 30
0.0
 10
107.065300
 20
206.005554
 30
0.0
  0
LWPOLYLINE
  5
179
100
AcDbEntity
  8
text_bottom
 62
7
100
AcDbPolyline
 90
2
 70
0
 10
104.607050
 20
205.531165
 30
0.0
 10
106.591430
 20
205.531165
 30
0.0
  0
SPLINE
  5
17a
100
AcDbEntity
  8
text_bottom
 62
7
100
AcDbSpline
 70
8
 71
3
 72
8
 73
4
 74
0
 40
0
 40
0
 40
0
 40
0
 40
1
 40
1
 40
1
 40
1
 10
106.944380
 20
207.692273
 30
0.0
 10
106.826780
 20
209.206279
 30
0.0
 10
106.767640
 20
210.359809
 30
0.0
 10
106.767640
 20
211.153560
 30
0.0
  0
SPLINE
  5
17b
100
AcDbEntity
  8
text_bottom
 62
7
100
AcDbSpline
 70
8
 71
3
 72
8
 73
4
 74
0
 40
0
 40
0
 40
0
 40
0
 40
1
 40
1
 40
1
 40
1
 10
106.767640
 20
211.153560
 30
0.0
 10
106.767640
 20
212.175147
 30
0.0
 10
106.926000
 20
213.524129
 30
0.0
 10
107.242030
 20
215.199825
 30
0.0
  0
SPLINE
  5
17c
100
AcDbEntity
  8
text_bottom
 62
7
100
AcDbSpline
 70
8
 71
3
 72
8
 73
4
 74
0
 40
0
 40
0
 40
0
 40
0
 40
1
 40
1
 40
1
 40
1
 10
107.242030
 20
215.199825
 30
0.0
 10
107.271430
 20
215.332117
 30
0.0
 10
107.285960
 20
215.423814
 30
0.0
 10
107.285960
 20
215.475260
 30
0.0
  0
SPLINE
  5
17d
100
AcDbEntity
  8
text_bottom
 62
7
100
AcDbSpline
 70
8
 71
3
 72
8
 73
4
 74
0
 40
0
 40
0
 40
0
 40
0
 40
1
 40
1
 40
1
 40
1
 10
107.285960
 20
215.475260
 30
0.0
 10
107.285960
 20
215.578151
 30
0.0
 10
107.219810
 20
215.651819
 30
0.0
 10
107.087520
 20
215.695919
 30
0.0
  0
SPLINE
  5
17e
100
AcDbEntity
  8
text_bottom
 62
7
100
AcDbSpline
 70
8
 71
3
 72
8
 73
4
 74
0
 40
0
 40
0
 40
0
 40
0
 40
1
 40
1
 40
1
 40
1
 10
107.087520
 20
215.695919
 30
0.0
 10
106.764140
 20
215.791463
 30
0.0
 10
106.025510
 20
215.956827
 30
0.0
 10
104.871630
 20
216.192013
 30
0.0
  0
SPLINE
  5
17f
100
AcDbEntity
  8
text_bottom
 62
7
100
AcDbSpline
 70
8
 71
3
 72
8
 73
4
 74
0
 40
0
 40
0
 40
0
 40
0
 40
1
 40
1
 40
1
 40
1
 10
104.871630
 20
216.192013
 30
0.0
 10
103.666310
 20
216.434548
 30
0.0
 10
102.942210
 20
216.555815
 30
0.0
 10
102.699670
 20
216.555815
 30
0.0
  0
LWPOLYLINE
  5
180
100
AcDbEntity
  8
text_bottom
 62
7
100
AcDbPolyline
 90
2
 70
0
 10
107.065300
 20
206.005554
 30
0.0
 10
106.944380
 20
207.692273
 30
0.0
  0
SPLINE
  5
181
100
AcDbEntity
  8
text_bottom
 62
7
100
AcDbSpline
 70
8
 71
3
 72
8
 73
4
 74
0
 40
0
 40
0
 40
0
 40
0
 40
1
 40
1
 40
1
 40
1
 10
100.792810
 20
212.035677
 30
0.0
 10
101.454270
 20
212.035677
 30
0.0
 10
101.785000
 20
211.697427
 30
0.0
 10
101.785000
 20
211.021269
 30
0.0
  0
SPLINE
  5
182
100
AcDbEntity
  8
text_bottom
 62
7
100
AcDbSpline
 70
8
 71
3
 72
8
 73
4
 74
0
 40
0
 40
0
 40
0
 40
0
 40
1
 40
1
 40
1
 40
1
 10
101.785000
 20
211.021269
 30
0.0
 10
101.785000
 20
210.734637
 30
0.0
 10
101.689280
 20
210.496122
 30
0.0
 10
101.498200
 20
210.305033
 30
0.0
  0
SPLINE
  5
183
100
AcDbEntity
  8
text_bottom
 62
7
100
AcDbSpline
 70
8
 71
3
 72
8
 73
4
 74
0
 40
0
 40
0
 40
0
 40
0
 40
1
 40
1
 40
1
 40
1
 10
101.498200
 20
210.305033
 30
0.0
 10
101.314460
 20
210.121295
 30
0.0
 10
101.079450
 20
210.029081
 30
0.0
 10
100.792810
 20
210.029081
 30
0.0
  0
SPLINE
  5
184
100
AcDbEntity
  8
text_bottom
 62
7
100
AcDbSpline
 70
8
 71
3
 72
8
 73
4
 74
0
 40
0
 40
0
 40
0
 40
0
 40
1
 40
1
 40
1
 40
1
 10
100.792810
 20
210.029081
 30
0.0
 10
100.491480
 20
210.029081
 30
0.0
 10
100.237920
 20
210.121295
 30
0.0
 10
100.032140
 20
210.305033
 30
0.0
  0
SPLINE
  5
185
100
AcDbEntity
  8
text_bottom
 62
7
100
AcDbSpline
 70
8
 71
3
 72
8
 73
4
 74
0
 40
0
 40
0
 40
0
 40
0
 40
1
 40
1
 40
1
 40
1
 10
100.032140
 20
210.305033
 30
0.0
 10
99.826352
 20
210.488772
 30
0.0
 10
99.723112
 20
210.727287
 30
0.0
 10
99.723112
 20
211.021269
 30
0.0
  0
SPLINE
  5
186
100
AcDbEntity
  8
text_bottom
 62
7
100
AcDbSpline
 70
8
 71
3
 72
8
 73
4
 74
0
 40
0
 40
0
 40
0
 40
0
 40
1
 40
1
 40
1
 40
1
 10
99.723112
 20
211.021269
 30
0.0
 10
99.723112
 20
211.315251
 30
0.0
 10
99.826352
 20
211.557785
 30
0.0
 10
100.032140
 20
211.748873
 30
0.0
  0
SPLINE
  5
187
100
AcDbEntity
  8
text_bottom
 62
7
100
AcDbSpline
 70
8
 71
3
 72
8
 73
4
 74
0
 40
0
 40
0
 40
0
 40
0
 40
1
 40
1
 40
1
 40
1
 10
100.032140
 20
211.748873
 30
0.0
 10
100.237920
 20
211.939961
 30
0.0
 10
100.491480
 20
212.035677
 30
0.0
 10
100.792810
 20
212.035677
 30
0.0
  0
LWPOLYLINE
  5
188
100
AcDbEntity
  8
text_bottom
 62
7
100
AcDbPolyline
 90
1
 70
1
 10
102.699670
 20
216.555815
 30
0.0
  0
SPLINE
  5
189
100
AcDbEntity
  8
text_bottom
 62
7
100
AcDbSpline
 70
8
 71
3
 72
8
 73
4
 74
0
 40
0
 40
0
 40
0
 40
0
 40
1
 40
1
 40
1
 40
1
 10
88.026668
 20
216.820398
 30
0.0
 10
86.358322
 20
216.820398
 30
0.0
 10
84.965243
 20
216.250638
 30
0.0
 10
83.848112
 20
215.111458
 30
0.0
  0
SPLINE
  5
18a
100
AcDbEntity
  8
text_bottom
 62
7
100
AcDbSpline
 70
8
 71
3
 72
8
 73
4
 74
0
 40
0
 40
0
 40
0
 40
0
 40
1
 40
1
 40
1
 40
1
 10
83.848112
 20
215.111458
 30
0.0
 10
82.738331
 20
213.972279
 30
0.0
 10
82.183614
 20
212.561170
 30
0.0
 10
82.183614
 20
210.878125
 30
0.0
  0
SPLINE
  5
18b
100
AcDbEntity
  8
text_bottom
 62
7
100
AcDbSpline
 70
8
 71
3
 72
8
 73
4
 74
0
 40
0
 40
0
 40
0
 40
0
 40
1
 40
1
 40
1
 40
1
 10
82.183614
 20
210.878125
 30
0.0
 10
82.183614
 20
209.011340
 30
0.0
 10
82.760379
 20
207.596730
 30
0.0
 10
83.914258
 20
206.633940
 30
0.0
  0
SPLINE
  5
18c
100
AcDbEntity
  8
text_bottom
 62
7
100
AcDbSpline
 70
8
 71
3
 72
8
 73
4
 74
0
 40
0
 40
0
 40
0
 40
0
 40
1
 40
1
 40
1
 40
1
 10
83.914258
 20
206.633940
 30
0.0
 10
84.987291
 20
205.729946
 30
0.0
 10
86.479589
 20
205.277950
 30
0.0
 10
88.390470
 20
205.277950
 30
0.0
  0
SPLINE
  5
18d
100
AcDbEntity
  8
text_bottom
 62
7
100
AcDbSpline
 70
8
 71
3
 72
8
 73
4
 74
0
 40
0
 40
0
 40
0
 40
0
 40
1
 40
1
 40
1
 40
1
 10
88.390470
 20
205.277950
 30
0.0
 10
90.389546
 20
205.277950
 30
0.0
 10
91.796636
 20
205.670805
 30
0.0
 10
92.612435
 20
206.457206
 30
0.0
  0
SPLINE
  5
18e
100
AcDbEntity
  8
text_bottom
 62
7
100
AcDbSpline
 70
8
 71
3
 72
8
 73
4
 74
0
 40
0
 40
0
 40
0
 40
0
 40
1
 40
1
 40
1
 40
1
 10
92.612435
 20
206.457206
 30
0.0
 10
92.707980
 20
206.545401
 30
0.0
 10
92.756095
 20
206.630093
 30
0.0
 10
92.756095
 20
206.710938
 30
0.0
  0
SPLINE
  5
18f
100
AcDbEntity
  8
text_bottom
 62
7
100
AcDbSpline
 70
8
 71
3
 72
8
 73
4
 74
0
 40
0
 40
0
 40
0
 40
0
 40
1
 40
1
 40
1
 40
1
 10
92.756095
 20
206.710938
 30
0.0
 10
92.756095
 20
206.747686
 30
0.0
 10
92.630809
 20
206.942620
 30
0.0
 10
92.380924
 20
207.295398
 30
0.0
  0
SPLINE
  5
190
100
AcDbEntity
  8
text_bottom
 62
7
100
AcDbSpline
 70
8
 71
3
 72
8
 73
4
 74
0
 40
0
 40
0
 40
0
 40
0
 40
1
 40
1
 40
1
 40
1
 10
92.380924
 20
207.295398
 30
0.0
 10
92.101642
 20
207.692276
 30
0.0
 10
91.962345
 20
207.894216
 30
0.0
 10
91.962345
 20
207.901563
 30
0.0
  0
SPLINE
  5
191
100
AcDbEntity
  8
text_bottom
 62
7
100
AcDbSpline
 70
8
 71
3
 72
8
 73
4
 74
0
 40
0
 40
0
 40
0
 40
0
 40
1
 40
1
 40
1
 40
1
 10
91.962345
 20
207.901563
 30
0.0
 10
91.719810
 20
208.386632
 30
0.0
 10
91.543421
 20
208.753936
 30
0.0
 10
91.433179
 20
209.003821
 30
0.0
  0
SPLINE
  5
192
100
AcDbEntity
  8
text_bottom
 62
7
100
AcDbSpline
 70
8
 71
3
 72
8
 73
4
 74
0
 40
0
 40
0
 40
0
 40
0
 40
1
 40
1
 40
1
 40
1
 10
91.433179
 20
209.003821
 30
0.0
 10
91.359683
 20
209.136113
 30
0.0
 10
91.263967
 20
209.202258
 30
0.0
 10
91.146375
 20
209.202258
 30
0.0
  0
SPLINE
  5
193
100
AcDbEntity
  8
text_bottom
 62
7
100
AcDbSpline
 70
8
 71
3
 72
8
 73
4
 74
0
 40
0
 40
0
 40
0
 40
0
 40
1
 40
1
 40
1
 40
1
 10
91.146375
 20
209.202258
 30
0.0
 10
91.065530
 20
209.202258
 30
0.0
 10
90.745825
 20
209.110562
 30
0.0
 10
90.187260
 20
208.926823
 30
0.0
  0
SPLINE
  5
194
100
AcDbEntity
  8
text_bottom
 62
7
100
AcDbSpline
 70
8
 71
3
 72
8
 73
4
 74
0
 40
0
 40
0
 40
0
 40
0
 40
1
 40
1
 40
1
 40
1
 10
90.187260
 20
208.926823
 30
0.0
 10
89.636044
 20
208.743084
 30
0.0
 10
89.195073
 20
208.651388
 30
0.0
 10
88.864343
 20
208.651388
 30
0.0
  0
SPLINE
  5
195
100
AcDbEntity
  8
text_bottom
 62
7
100
AcDbSpline
 70
8
 71
3
 72
8
 73
4
 74
0
 40
0
 40
0
 40
0
 40
0
 40
1
 40
1
 40
1
 40
1
 10
88.864343
 20
208.651388
 30
0.0
 10
88.533613
 20
208.651388
 30
0.0
 10
88.210407
 20
208.706509
 30
0.0
 10
87.894377
 20
208.816752
 30
0.0
  0
SPLINE
  5
196
100
AcDbEntity
  8
text_bottom
 62
7
100
AcDbSpline
 70
8
 71
3
 72
8
 73
4
 74
0
 40
0
 40
0
 40
0
 40
0
 40
1
 40
1
 40
1
 40
1
 10
87.894377
 20
208.816752
 30
0.0
 10
87.497501
 20
208.963743
 30
0.0
 10
87.254967
 20
209.162180
 30
0.0
 10
87.166772
 20
209.412065
 30
0.0
  0
LWPOLYLINE
  5
197
100
AcDbEntity
  8
text_bottom
 62
7
100
AcDbPolyline
 90
1
 70
1
 10
100.792810
 20
212.035677
 30
0.0
  0
SPLINE
  5
198
100
AcDbEntity
  8
text_bottom
 62
7
100
AcDbSpline
 70
8
 71
3
 72
8
 73
4
 74
0
 40
0
 40
0
 40
0
 40
0
 40
1
 40
1
 40
1
 40
1
 10
89.746460
 20
209.709721
 30
0.0
 10
91.488302
 20
209.908156
 30
0.0
 10
92.443396
 20
210.029423
 30
0.0
 10
92.612435
 20
210.073523
 30
0.0
  0
SPLINE
  5
199
100
AcDbEntity
  8
text_bottom
 62
7
100
AcDbSpline
 70
8
 71
3
 72
8
 73
4
 74
0
 40
0
 40
0
 40
0
 40
0
 40
1
 40
1
 40
1
 40
1
 10
92.612435
 20
210.073523
 30
0.0
 10
93.090156
 20
210.191116
 30
0.0
 10
93.329187
 20
210.632087
 30
0.0
 10
93.329187
 20
211.396440
 30
0.0
  0
SPLINE
  5
19a
100
AcDbEntity
  8
text_bottom
 62
7
100
AcDbSpline
 70
8
 71
3
 72
8
 73
4
 74
0
 40
0
 40
0
 40
0
 40
0
 40
1
 40
1
 40
1
 40
1
 10
93.329187
 20
211.396440
 30
0.0
 10
93.329187
 20
212.858999
 30
0.0
 10
92.807543
 20
214.126792
 30
0.0
 10
91.763908
 20
215.199825
 30
0.0
  0
SPLINE
  5
19b
100
AcDbEntity
  8
text_bottom
 62
7
100
AcDbSpline
 70
8
 71
3
 72
8
 73
4
 74
0
 40
0
 40
0
 40
0
 40
0
 40
1
 40
1
 40
1
 40
1
 10
91.763908
 20
215.199825
 30
0.0
 10
90.727622
 20
216.280208
 30
0.0
 10
89.481878
 20
216.820398
 30
0.0
 10
88.026668
 20
216.820398
 30
0.0
  0
LWPOLYLINE
  5
19c
100
AcDbEntity
  8
text_bottom
 62
7
100
AcDbPolyline
 90
2
 70
0
 10
87.166772
 20
209.412065
 30
0.0
 10
89.746460
 20
209.709721
 30
0.0
  0
SPLINE
  5
19d
100
AcDbEntity
  8
text_bottom
 62
7
100
AcDbSpline
 70
8
 71
3
 72
8
 73
4
 74
0
 40
0
 40
0
 40
0
 40
0
 40
1
 40
1
 40
1
 40
1
 10
88.092814
 20
213.116231
 30
0.0
 10
88.305951
 20
213.116231
 30
0.0
 10
88.496866
 20
213.017012
 30
0.0
 10
88.665906
 20
212.818575
 30
0.0
  0
SPLINE
  5
19e
100
AcDbEntity
  8
text_bottom
 62
7
100
AcDbSpline
 70
8
 71
3
 72
8
 73
4
 74
0
 40
0
 40
0
 40
0
 40
0
 40
1
 40
1
 40
1
 40
1
 10
88.665906
 20
212.818575
 30
0.0
 10
88.842295
 20
212.620137
 30
0.0
 10
88.930489
 20
212.410676
 30
0.0
 10
88.930489
 20
212.190190
 30
0.0
  0
SPLINE
  5
19f
100
AcDbEntity
  8
text_bottom
 62
7
100
AcDbSpline
 70
8
 71
3
 72
8
 73
4
 74
0
 40
0
 40
0
 40
0
 40
0
 40
1
 40
1
 40
1
 40
1
 10
88.930489
 20
212.190190
 30
0.0
 10
88.930489
 20
212.124042
 30
0.0
 10
88.801700
 20
212.079945
 30
0.0
 10
88.544466
 20
212.057898
 30
0.0
  0
SPLINE
  5
1a0
100
AcDbEntity
  8
text_bottom
 62
7
100
AcDbSpline
 70
8
 71
3
 72
8
 73
4
 74
0
 40
0
 40
0
 40
0
 40
0
 40
1
 40
1
 40
1
 40
1
 10
88.544466
 20
212.057898
 30
0.0
 10
88.470970
 20
212.050551
 30
0.0
 10
88.283558
 20
212.024483
 30
0.0
 10
87.982227
 20
211.980383
 30
0.0
  0
SPLINE
  5
1a1
100
AcDbEntity
  8
text_bottom
 62
7
100
AcDbSpline
 70
8
 71
3
 72
8
 73
4
 74
0
 40
0
 40
0
 40
0
 40
0
 40
1
 40
1
 40
1
 40
1
 10
87.982227
 20
211.980383
 30
0.0
 10
87.747041
 20
211.943637
 30
0.0
 10
87.559628
 20
211.925606
 30
0.0
 10
87.419987
 20
211.925606
 30
0.0
  0
SPLINE
  5
1a2
100
AcDbEntity
  8
text_bottom
 62
7
100
AcDbSpline
 70
8
 71
3
 72
8
 73
4
 74
0
 40
0
 40
0
 40
0
 40
0
 40
1
 40
1
 40
1
 40
1
 10
87.419987
 20
211.925606
 30
0.0
 10
87.177452
 20
211.925606
 30
0.0
 10
87.056185
 20
212.009781
 30
0.0
 10
87.056185
 20
212.178821
 30
0.0
  0
SPLINE
  5
1a3
100
AcDbEntity
  8
text_bottom
 62
7
100
AcDbSpline
 70
8
 71
3
 72
8
 73
4
 74
0
 40
0
 40
0
 40
0
 40
0
 40
1
 40
1
 40
1
 40
1
 10
87.056185
 20
212.178821
 30
0.0
 10
87.056185
 20
212.428705
 30
0.0
 10
87.162925
 20
212.645688
 30
0.0
 10
87.376062
 20
212.829427
 30
0.0
  0
SPLINE
  5
1a4
100
AcDbEntity
  8
text_bottom
 62
7
100
AcDbSpline
 70
8
 71
3
 72
8
 73
4
 74
0
 40
0
 40
0
 40
0
 40
0
 40
1
 40
1
 40
1
 40
1
 10
87.376062
 20
212.829427
 30
0.0
 10
87.596548
 20
213.020515
 30
0.0
 10
87.835579
 20
213.116231
 30
0.0
 10
88.092814
 20
213.116231
 30
0.0
  0
LWPOLYLINE
  5
1a5
100
AcDbEntity
  8
text_bottom
 62
7
100
AcDbPolyline
 90
1
 70
1
 10
88.026668
 20
216.820398
 30
0.0
  0
SPLINE
  5
1a6
100
AcDbEntity
  8
text_bottom
 62
7
100
AcDbSpline
 70
8
 71
3
 72
8
 73
4
 74
0
 40
0
 40
0
 40
0
 40
0
 40
1
 40
1
 40
1
 40
1
 10
76.439779
 20
216.555815
 30
0.0
 10
76.278091
 20
216.555815
 30
0.0
 10
76.175370
 20
216.427026
 30
0.0
 10
76.131270
 20
216.169792
 30
0.0
  0
SPLINE
  5
1a7
100
AcDbEntity
  8
text_bottom
 62
7
100
AcDbSpline
 70
8
 71
3
 72
8
 73
4
 74
0
 40
0
 40
0
 40
0
 40
0
 40
1
 40
1
 40
1
 40
1
 10
76.131270
 20
216.169792
 30
0.0
 10
76.094520
 20
215.912558
 30
0.0
 10
76.046920
 20
215.783769
 30
0.0
 10
75.988127
 20
215.783769
 30
0.0
  0
SPLINE
  5
1a8
100
AcDbEntity
  8
text_bottom
 62
7
100
AcDbSpline
 70
8
 71
3
 72
8
 73
4
 74
0
 40
0
 40
0
 40
0
 40
0
 40
1
 40
1
 40
1
 40
1
 10
75.988127
 20
215.783769
 30
0.0
 10
76.002827
 20
215.783769
 30
0.0
 10
75.672098
 20
215.901533
 30
0.0
 10
74.995939
 20
216.136719
 30
0.0
  0
SPLINE
  5
1a9
100
AcDbEntity
  8
text_bottom
 62
7
100
AcDbSpline
 70
8
 71
3
 72
8
 73
4
 74
0
 40
0
 40
0
 40
0
 40
0
 40
1
 40
1
 40
1
 40
1
 10
74.995939
 20
216.136719
 30
0.0
 10
74.319781
 20
216.379253
 30
0.0
 10
73.794118
 20
216.500521
 30
0.0
 10
73.419291
 20
216.500521
 30
0.0
  0
SPLINE
  5
1aa
100
AcDbEntity
  8
text_bottom
 62
7
100
AcDbSpline
 70
8
 71
3
 72
8
 73
4
 74
0
 40
0
 40
0
 40
0
 40
0
 40
1
 40
1
 40
1
 40
1
 10
73.419291
 20
216.500521
 30
0.0
 10
71.618653
 20
216.500521
 30
0.0
 10
70.317788
 20
216.026477
 30
0.0
 10
69.516687
 20
215.078385
 30
0.0
  0
SPLINE
  5
1ab
100
AcDbEntity
  8
text_bottom
 62
7
100
AcDbSpline
 70
8
 71
3
 72
8
 73
4
 74
0
 40
0
 40
0
 40
0
 40
0
 40
1
 40
1
 40
1
 40
1
 10
69.516687
 20
215.078385
 30
0.0
 10
68.553896
 20
213.931857
 30
0.0
 10
68.072331
 20
212.495197
 30
0.0
 10
68.072331
 20
210.768054
 30
0.0
  0
SPLINE
  5
1ac
100
AcDbEntity
  8
text_bottom
 62
7
100
AcDbSpline
 70
8
 71
3
 72
8
 73
4
 74
0
 40
0
 40
0
 40
0
 40
0
 40
1
 40
1
 40
1
 40
1
 10
68.072331
 20
210.768054
 30
0.0
 10
68.072331
 20
209.283446
 30
0.0
 10
68.498775
 20
208.015654
 30
0.0
 10
69.351322
 20
206.964669
 30
0.0
  0
SPLINE
  5
1ad
100
AcDbEntity
  8
text_bottom
 62
7
100
AcDbSpline
 70
8
 71
3
 72
8
 73
4
 74
0
 40
0
 40
0
 40
0
 40
0
 40
1
 40
1
 40
1
 40
1
 10
69.351322
 20
206.964669
 30
0.0
 10
70.262666
 20
205.840189
 30
0.0
 10
71.438762
 20
205.277950
 30
0.0
 10
72.879272
 20
205.277950
 30
0.0
  0
SPLINE
  5
1ae
100
AcDbEntity
  8
text_bottom
 62
7
100
AcDbSpline
 70
8
 71
3
 72
8
 73
4
 74
0
 40
0
 40
0
 40
0
 40
0
 40
1
 40
1
 40
1
 40
1
 10
72.879272
 20
205.277950
 30
0.0
 10
73.327594
 20
205.277950
 30
0.0
 10
73.889833
 20
205.450319
 30
0.0
 10
74.565991
 20
205.795748
 30
0.0
  0
SPLINE
  5
1af
100
AcDbEntity
  8
text_bottom
 62
7
100
AcDbSpline
 70
8
 71
3
 72
8
 73
4
 74
0
 40
0
 40
0
 40
0
 40
0
 40
1
 40
1
 40
1
 40
1
 10
74.565991
 20
205.795748
 30
0.0
 10
75.242149
 20
206.148526
 30
0.0
 10
75.561852
 20
206.324915
 30
0.0
 10
75.525106
 20
206.324915
 30
0.0
  0
SPLINE
  5
1b0
100
AcDbEntity
  8
text_bottom
 62
7
100
AcDbSpline
 70
8
 71
3
 72
8
 73
4
 74
0
 40
0
 40
0
 40
0
 40
0
 40
1
 40
1
 40
1
 40
1
 10
75.525106
 20
206.324915
 30
0.0
 10
75.613296
 20
206.324915
 30
0.0
 10
75.664402
 20
206.178097
 30
0.0
 10
75.679102
 20
205.884115
 30
0.0
  0
SPLINE
  5
1b1
100
AcDbEntity
  8
text_bottom
 62
7
100
AcDbSpline
 70
8
 71
3
 72
8
 73
4
 74
0
 40
0
 40
0
 40
0
 40
0
 40
1
 40
1
 40
1
 40
1
 10
75.679102
 20
205.884115
 30
0.0
 10
75.693802
 20
205.590133
 30
0.0
 10
75.852160
 20
205.443315
 30
0.0
 10
76.153491
 20
205.443315
 30
0.0
  0
SPLINE
  5
1b2
100
AcDbEntity
  8
text_bottom
 62
7
100
AcDbSpline
 70
8
 71
3
 72
8
 73
4
 74
0
 40
0
 40
0
 40
0
 40
0
 40
1
 40
1
 40
1
 40
1
 10
76.153491
 20
205.443315
 30
0.0
 10
76.396026
 20
205.443315
 30
0.0
 10
76.759827
 20
205.457845
 30
0.0
 10
77.244897
 20
205.487245
 30
0.0
  0
SPLINE
  5
1b3
100
AcDbEntity
  8
text_bottom
 62
7
100
AcDbSpline
 70
8
 71
3
 72
8
 73
4
 74
0
 40
0
 40
0
 40
0
 40
0
 40
1
 40
1
 40
1
 40
1
 10
77.244897
 20
205.487245
 30
0.0
 10
77.737317
 20
205.516645
 30
0.0
 10
78.104620
 20
205.531175
 30
0.0
 10
78.347156
 20
205.531175
 30
0.0
  0
LWPOLYLINE
  5
1b4
100
AcDbEntity
  8
text_bottom
 62
7
100
AcDbPolyline
 90
1
 70
1
 10
88.092814
 20
213.116231
 30
0.0
  0
SPLINE
  5
1b5
100
AcDbEntity
  8
text_bottom
 62
7
100
AcDbSpline
 70
8
 71
3
 72
8
 73
4
 74
0
 40
0
 40
0
 40
0
 40
0
 40
1
 40
1
 40
1
 40
1
 10
80.331531
 20
205.531175
 30
0.0
 10
80.647561
 20
205.553225
 30
0.0
 10
80.805404
 20
205.711582
 30
0.0
 10
80.805404
 20
206.005564
 30
0.0
  0
LWPOLYLINE
  5
1b6
100
AcDbEntity
  8
text_bottom
 62
7
100
AcDbPolyline
 90
2
 70
0
 10
78.347156
 20
205.531175
 30
0.0
 10
80.331531
 20
205.531175
 30
0.0
  0
SPLINE
  5
1b7
100
AcDbEntity
  8
text_bottom
 62
7
100
AcDbSpline
 70
8
 71
3
 72
8
 73
4
 74
0
 40
0
 40
0
 40
0
 40
0
 40
1
 40
1
 40
1
 40
1
 10
80.684481
 20
207.692283
 30
0.0
 10
80.566888
 20
209.206289
 30
0.0
 10
80.507747
 20
210.359819
 30
0.0
 10
80.507747
 20
211.153570
 30
0.0
  0
SPLINE
  5
1b8
100
AcDbEntity
  8
text_bottom
 62
7
100
AcDbSpline
 70
8
 71
3
 72
8
 73
4
 74
0
 40
0
 40
0
 40
0
 40
0
 40
1
 40
1
 40
1
 40
1
 10
80.507747
 20
211.153570
 30
0.0
 10
80.507747
 20
212.175157
 30
0.0
 10
80.666107
 20
213.524139
 30
0.0
 10
80.982137
 20
215.199835
 30
0.0
  0
SPLINE
  5
1b9
100
AcDbEntity
  8
text_bottom
 62
7
100
AcDbSpline
 70
8
 71
3
 72
8
 73
4
 74
0
 40
0
 40
0
 40
0
 40
0
 40
1
 40
1
 40
1
 40
1
 10
80.982137
 20
215.199835
 30
0.0
 10
81.011537
 20
215.332127
 30
0.0
 10
81.026067
 20
215.423824
 30
0.0
 10
81.026067
 20
215.475270
 30
0.0
  0
SPLINE
  5
1ba
100
AcDbEntity
  8
text_bottom
 62
7
100
AcDbSpline
 70
8
 71
3
 72
8
 73
4
 74
0
 40
0
 40
0
 40
0
 40
0
 40
1
 40
1
 40
1
 40
1
 10
81.026067
 20
215.475270
 30
0.0
 10
81.026067
 20
215.578161
 30
0.0
 10
80.959927
 20
215.651829
 30
0.0
 10
80.827630
 20
215.695929
 30
0.0
  0
SPLINE
  5
1bb
100
AcDbEntity
  8
text_bottom
 62
7
100
AcDbSpline
 70
8
 71
3
 72
8
 73
4
 74
0
 40
0
 40
0
 40
0
 40
0
 40
1
 40
1
 40
1
 40
1
 10
80.827630
 20
215.695929
 30
0.0
 10
80.504250
 20
215.791469
 30
0.0
 10
79.765623
 20
215.956837
 30
0.0
 10
78.611744
 20
216.192023
 30
0.0
  0
SPLINE
  5
1bc
100
AcDbEntity
  8
text_bottom
 62
7
100
AcDbSpline
 70
8
 71
3
 72
8
 73
4
 74
0
 40
0
 40
0
 40
0
 40
0
 40
1
 40
1
 40
1
 40
1
 10
78.611744
 20
216.192023
 30
0.0
 10
77.406419
 20
216.434558
 30
0.0
 10
76.682318
 20
216.555825
 30
0.0
 10
76.439784
 20
216.555825
 30
0.0
  0
LWPOLYLINE
  5
1bd
100
AcDbEntity
  8
text_bottom
 62
7
100
AcDbPolyline
 90
2
 70
0
 10
80.805404
 20
206.005564
 30
0.0
 10
80.684481
 20
207.692283
 30
0.0
  0
SPLINE
  5
1be
100
AcDbEntity
  8
text_bottom
 62
7
100
AcDbSpline
 70
8
 71
3
 72
8
 73
4
 74
0
 40
0
 40
0
 40
0
 40
0
 40
1
 40
1
 40
1
 40
1
 10
74.532918
 20
212.035677
 30
0.0
 10
75.194378
 20
212.035677
 30
0.0
 10
75.525106
 20
211.697427
 30
0.0
 10
75.525106
 20
211.021269
 30
0.0
  0
SPLINE
  5
1bf
100
AcDbEntity
  8
text_bottom
 62
7
100
AcDbSpline
 70
8
 71
3
 72
8
 73
4
 74
0
 40
0
 40
0
 40
0
 40
0
 40
1
 40
1
 40
1
 40
1
 10
75.525106
 20
211.021269
 30
0.0
 10
75.525106
 20
210.734637
 30
0.0
 10
75.429386
 20
210.496122
 30
0.0
 10
75.238302
 20
210.305033
 30
0.0
  0
SPLINE
  5
1c0
100
AcDbEntity
  8
text_bottom
 62
7
100
AcDbSpline
 70
8
 71
3
 72
8
 73
4
 74
0
 40
0
 40
0
 40
0
 40
0
 40
1
 40
1
 40
1
 40
1
 10
75.238302
 20
210.305033
 30
0.0
 10
75.054563
 20
210.121295
 30
0.0
 10
74.819550
 20
210.029081
 30
0.0
 10
74.532918
 20
210.029081
 30
0.0
  0
SPLINE
  5
1c1
100
AcDbEntity
  8
text_bottom
 62
7
100
AcDbSpline
 70
8
 71
3
 72
8
 73
4
 74
0
 40
0
 40
0
 40
0
 40
0
 40
1
 40
1
 40
1
 40
1
 10
74.532918
 20
210.029081
 30
0.0
 10
74.231587
 20
210.029081
 30
0.0
 10
73.978029
 20
210.121291
 30
0.0
 10
73.772241
 20
210.305033
 30
0.0
  0
SPLINE
  5
1c2
100
AcDbEntity
  8
text_bottom
 62
7
100
AcDbSpline
 70
8
 71
3
 72
8
 73
4
 74
0
 40
0
 40
0
 40
0
 40
0
 40
1
 40
1
 40
1
 40
1
 10
73.772241
 20
210.305033
 30
0.0
 10
73.566454
 20
210.488772
 30
0.0
 10
73.463216
 20
210.727287
 30
0.0
 10
73.463216
 20
211.021269
 30
0.0
  0
SPLINE
  5
1c3
100
AcDbEntity
  8
text_bottom
 62
7
100
AcDbSpline
 70
8
 71
3
 72
8
 73
4
 74
0
 40
0
 40
0
 40
0
 40
0
 40
1
 40
1
 40
1
 40
1
 10
73.463216
 20
211.021269
 30
0.0
 10
73.463216
 20
211.315251
 30
0.0
 10
73.566454
 20
211.557785
 30
0.0
 10
73.772241
 20
211.748873
 30
0.0
  0
SPLINE
  5
1c4
100
AcDbEntity
  8
text_bottom
 62
7
100
AcDbSpline
 70
8
 71
3
 72
8
 73
4
 74
0
 40
0
 40
0
 40
0
 40
0
 40
1
 40
1
 40
1
 40
1
 10
73.772241
 20
211.748873
 30
0.0
 10
73.978029
 20
211.939961
 30
0.0
 10
74.231587
 20
212.035677
 30
0.0
 10
74.532918
 20
212.035677
 30
0.0
  0
LWPOLYLINE
  5
1c5
100
AcDbEntity
  8
text_bottom
 62
7
100
AcDbPolyline
 90
1
 70
1
 10
76.439784
 20
216.555825
 30
0.0
  0
SPLINE
  5
1c6
100
AcDbEntity
  8
text_bottom
 62
7
100
AcDbSpline
 70
8
 71
3
 72
8
 73
4
 74
0
 40
0
 40
0
 40
0
 40
0
 40
1
 40
1
 40
1
 40
1
 10
25.060357
 20
220.506058
 30
0.0
 10
25.427734
 20
220.889507
 30
0.0
 10
25.685816
 20
221.221065
 30
0.0
 10
26.254331
 20
221.286733
 30
0.0
  0
SPLINE
  5
1c7
100
AcDbEntity
  8
text_bottom
 62
7
100
AcDbSpline
 70
8
 71
3
 72
8
 73
4
 74
0
 40
0
 40
0
 40
0
 40
0
 40
1
 40
1
 40
1
 40
1
 10
26.254331
 20
221.286733
 30
0.0
 10
27.318346
 20
221.407967
 30
0.0
 10
28.295110
 20
220.318695
 30
0.0
 10
27.757821
 20
219.246415
 30
0.0
  0
SPLINE
  5
1c8
100
AcDbEntity
  8
text_bottom
 62
7
100
AcDbSpline
 70
8
 71
3
 72
8
 73
4
 74
0
 40
0
 40
0
 40
0
 40
0
 40
1
 40
1
 40
1
 40
1
 10
27.757821
 20
219.246415
 30
0.0
 10
27.604900
 20
218.941033
 30
0.0
 10
27.293547
 20
218.577789
 30
0.0
 10
26.949133
 20
218.221433
 30
0.0
  0
SPLINE
  5
1c9
100
AcDbEntity
  8
text_bottom
 62
7
100
AcDbSpline
 70
8
 71
3
 72
8
 73
4
 74
0
 40
0
 40
0
 40
0
 40
0
 40
1
 40
1
 40
1
 40
1
 10
26.949133
 20
218.221433
 30
0.0
 10
26.571194
 20
217.830178
 30
0.0
 10
26.152843
 20
217.446728
 30
0.0
 10
25.859861
 20
217.156041
 30
0.0
  0
LWPOLYLINE
  5
1ca
100
AcDbEntity
  8
text_bottom
 62
7
100
AcDbPolyline
 90
1
 70
1
 10
74.532918
 20
212.035677
 30
0.0
  0
SPLINE
  5
1cb
100
AcDbEntity
  8
text_bottom
 62
7
100
AcDbSpline
 70
8
 71
3
 72
8
 73
4
 74
0
 40
0
 40
0
 40
0
 40
0
 40
1
 40
1
 40
1
 40
1
 10
24.400457
 20
216.998988
 30
0.0
 10
23.606004
 20
217.764051
 30
0.0
 10
22.312840
 20
218.727037
 30
0.0
 10
22.266917
 20
219.920092
 30
0.0
  0
SPLINE
  5
1cc
100
AcDbEntity
  8
text_bottom
 62
7
100
AcDbSpline
 70
8
 71
3
 72
8
 73
4
 74
0
 40
0
 40
0
 40
0
 40
0
 40
1
 40
1
 40
1
 40
1
 10
22.266917
 20
219.920092
 30
0.0
 10
22.237987
 20
220.755874
 30
0.0
 10
22.897427
 20
221.291326
 30
0.0
 10
23.656060
 20
221.281681
 30
0.0
  0
SPLINE
  5
1cd
100
AcDbEntity
  8
text_bottom
 62
7
100
AcDbSpline
 70
8
 71
3
 72
8
 73
4
 74
0
 40
0
 40
0
 40
0
 40
0
 40
1
 40
1
 40
1
 40
1
 10
23.656060
 20
221.281681
 30
0.0
 10
24.333870
 20
221.272581
 30
0.0
 10
24.620424
 20
220.935429
 30
0.0
 10
25.060357
 20
220.506058
 30
0.0
  0
LWPOLYLINE
  5
1ce
100
AcDbEntity
  8
text_bottom
 62
7
100
AcDbPolyline
 90
3
 70
0
 10
25.859861
 20
217.156041
 30
0.0
 10
25.060816
 20
216.363425
 30
0.0
 10
24.400457
 20
216.998988
 30
0.0
  0
LWPOLYLINE
  5
1cf
100
AcDbEntity
  8
text_bottom
 62
7
100
AcDbPolyline
 90
1
 70
1
 10
25.060357
 20
220.506058
 30
0.0
  0
ENDSEC
  0
SECTION
  2
OBJECTS
  0
DICTIONARY
  5
C
330
0
100
AcDbDictionary
  3
ACAD_GROUP
350
D
  3
ACAD_MLINESTYLE
350
17
  0
DICTIONARY
  5
D
330
C
100
AcDbDictionary
  0
DICTIONARY
  5
1A
330
C
100
AcDbDictionary
  0
DICTIONARY
  5
17
330
C
100
AcDbDictionary
  3
STANDARD
350
18
  0
DICTIONARY
  5
19
330
C
100
AcDbDictionary
  0
ENDSEC
  0
EOF
