<?xml version="1.0" encoding="UTF-8" standalone="no"?>
<!-- Created with Inkscape (http://www.inkscape.org/) -->

<svg
   width="85.273026mm"
   height="16.040268mm"
   viewBox="0 0 85.273026 16.040268"
   version="1.1"
   id="svg1"
   inkscape:version="1.4 (86a8ad7, 2024-10-11)"
   sodipodi:docname="inovaea_logo_white_ink.svg"
   xmlns:inkscape="http://www.inkscape.org/namespaces/inkscape"
   xmlns:sodipodi="http://sodipodi.sourceforge.net/DTD/sodipodi-0.dtd"
   xmlns="http://www.w3.org/2000/svg"
   xmlns:svg="http://www.w3.org/2000/svg">
  <sodipodi:namedview
     id="namedview1"
     pagecolor="#000000"
     bordercolor="#000000"
     borderopacity="0.25"
     inkscape:showpageshadow="2"
     inkscape:pageopacity="0.0"
     inkscape:pagecheckerboard="0"
     inkscape:deskcolor="#d1d1d1"
     inkscape:document-units="mm"
     inkscape:zoom="2.9041807"
     inkscape:cx="267.88966"
     inkscape:cy="329.00845"
     inkscape:window-width="1920"
     inkscape:window-height="1017"
     inkscape:window-x="1912"
     inkscape:window-y="-8"
     inkscape:window-maximized="1"
     inkscape:current-layer="layer2"
     showgrid="false">
    <inkscape:page
       x="0"
       y="0"
       width="85.273026"
       height="16.040268"
       id="page2"
       margin="0"
       bleed="0" />
  </sodipodi:namedview>
  <defs
     id="defs1" />
  <g
     inkscape:groupmode="layer"
     id="layer2"
     inkscape:label="text_bottom"
     transform="translate(-22.012929,-75.704001)">
    <path
       id="path35"
       style="font-weight:bold;font-size:22.5778px;font-family:'Berlin Sans FB';-inkscape-font-specification:'Berlin Sans FB Bold';fill:#ffffff;fill-opacity:1;stroke-width:0.265;paint-order:fill markers stroke"
       inkscape:label="o"
       d="m 48.658529,80.091752 c -1.705095,0 -3.105179,0.569244 -4.200261,1.708423 -1.065684,1.124481 -1.598352,2.546613 -1.598352,4.266406 0,1.638948 0.554717,2.994935 1.664498,4.067969 1.109781,1.073033 2.487817,1.609721 4.134115,1.609721 1.690394,0 3.079454,-0.547712 4.167187,-1.642794 1.087733,-1.102432 1.631942,-2.498496 1.631942,-4.188892 0,-1.690395 -0.544209,-3.083474 -1.631942,-4.178556 -1.087733,-1.095082 -2.476793,-1.642277 -4.167187,-1.642277 z m 0,4.784204 c 0.286632,0 0.525664,0.103238 0.716752,0.309025 0.198438,0.198438 0.297656,0.440972 0.297656,0.727604 0,0.293982 -0.09572,0.540019 -0.286804,0.738457 -0.191089,0.198438 -0.433623,0.297656 -0.727604,0.297656 -0.286633,0 -0.529167,-0.09922 -0.727605,-0.297656 -0.191088,-0.205787 -0.286287,-0.451824 -0.286287,-0.738457 0,-0.293981 0.0952,-0.540535 0.286287,-0.738973 0.198438,-0.198438 0.440972,-0.297656 0.727605,-0.297656 z"
       inkscape:export-filename="inovaea_logo_white.webp"
       inkscape:export-xdpi="96"
       inkscape:export-ydpi="96" />
    <path
       style="font-weight:bold;font-size:22.5778px;font-family:'Berlin Sans FB';-inkscape-font-specification:'Berlin Sans FB Bold';fill:#ffffff;fill-opacity:1;stroke-width:0.265;paint-order:fill markers stroke"
       d="m 28.02119,80.885368 q 0,0.07717 -0.02205,0.286632 -0.385851,4.145143 -0.385851,5.23655 0,0.73863 0.03307,2.226912 0.0441,1.477259 0.0441,2.226912 0,0.363803 -0.02205,0.418924 -0.05512,0.187414 -0.341754,0.187414 -0.385851,0 -1.157553,-0.0441 -0.760678,-0.0441 -1.146529,-0.0441 -0.385852,0 -1.157554,0.0441 -0.760678,0.0441 -1.146529,0.0441 -0.286632,0 -0.341753,-0.187414 -0.02205,-0.05512 -0.02205,-0.418924 0,-0.749653 0.03307,-2.226912 0.03307,-1.488282 0.03307,-2.226912 0,-1.675696 -0.374827,-5.23655 -0.03307,-0.209462 -0.03307,-0.297657 0,-0.286632 0.341754,-0.286632 0.440973,0 1.322918,0.143316 0.89297,0.143316 1.344967,0.143316 0.451997,0 1.333942,-0.143316 0.89297,-0.143316 1.333942,-0.143316 0.33073,0 0.33073,0.297657 z"
       id="path33"
       inkscape:label="i" />
    <path
       style="font-weight:bold;font-size:22.5778px;font-family:'Berlin Sans FB';-inkscape-font-specification:'Berlin Sans FB Bold';fill:#ffffff;fill-opacity:1;stroke-width:0.265;paint-order:fill markers stroke"
       d="m 41.669294,91.060812 q 0,0.451997 -0.4079,0.451997 -0.374827,0 -1.113456,-0.03307 -0.738629,-0.03307 -1.102431,-0.03307 -0.385852,0 -1.157554,0.01103 -0.760678,0.01102 -1.146529,0.01102 -0.429948,0 -0.429948,-0.56224 0,-0.507119 0.02205,-1.499307 0.02205,-1.003213 0.02205,-1.510332 0,-0.374827 -0.02205,-1.12448 -0.02205,-0.749654 -0.02205,-1.12448 0,-0.639411 -0.628386,-0.639411 -0.63941,0 -0.63941,0.617362 v 5.324745 q 0,0.56224 -0.474046,0.56224 -0.352778,0 -1.069359,-0.03307 -0.71658,-0.03307 -1.069358,-0.03307 -0.374827,0 -1.135505,0.01103 -0.749654,0.01102 -1.12448,0.01102 -0.474046,0 -0.474046,-0.474046 v -5.14837 q 0,-2.392276 -0.518143,-4.288459 -0.03307,-0.121267 -0.03307,-0.209462 0,-0.209462 0.187414,-0.286632 1.12448,-0.143316 2.667884,-0.363803 2.282034,-0.440972 2.623788,-0.440972 0.220486,0 0.275607,0.727605 0.05512,0.727605 0.17639,0.727605 -0.08819,0 1.135504,-0.639411 1.234724,-0.63941 2.039499,-0.63941 1.333942,0 2.304082,0.628386 1.113456,0.738629 1.113456,2.006425 z"
       id="path34"
       inkscape:label="n" />
    <path
       style="font-weight:bold;font-size:22.5778px;font-family:'Berlin Sans FB';-inkscape-font-specification:'Berlin Sans FB Bold';fill:#ffffff;fill-opacity:1;stroke-width:0.265;paint-order:fill markers stroke"
       d="m 67.234685,83.542228 q 0,2.259985 -0.132292,2.601739 -0.363802,0.915018 -1.664672,2.965541 -1.488282,2.359204 -1.973352,2.359204 -0.352778,0 -1.069359,-0.0441 -0.716581,-0.0441 -1.069359,-0.0441 -0.374827,0 -1.113456,0.0441 -0.727605,0.0441 -1.102431,0.0441 -0.48507,0 -1.962329,-2.34818 -1.267796,-2.01745 -1.675696,-2.976565 -0.308681,-0.760678 -0.308681,-2.601739 0,-0.418924 0.02205,-1.256772 0.02205,-0.848872 0.02205,-1.267796 0,-0.363803 0.474046,-0.363803 0.418924,0 1.267796,0.0441 0.859897,0.0441 1.278821,0.0441 0.363803,0 1.069359,-0.0441 0.716581,-0.0441 1.080383,-0.0441 0.286632,0 0.286632,0.4079 0,0.451997 -0.0441,1.378039 -0.0441,0.915019 -0.0441,1.37804 0,2.480471 0.683507,2.480471 0.782727,0 0.782727,-3.362416 0,-0.319706 -0.06615,-0.937067 -0.06615,-0.628386 -0.06615,-0.937067 0,-0.4079 0.297657,-0.4079 0.352778,0 1.069358,0.0441 0.716581,0.0441 1.069359,0.0441 0.374827,0 1.113456,-0.0441 0.749654,-0.0441 1.12448,-0.0441 0.25356,0 0.319706,0.05512 0.06615,0.05512 0.15434,0.308681 0.176389,0.540191 0.176389,2.524568 z"
       id="path37"
       inkscape:label="v" />
    <path
       id="path42"
       style="font-weight:bold;font-size:22.5778px;font-family:'Berlin Sans FB';-inkscape-font-specification:'Berlin Sans FB Bold';fill:#ffffff;fill-opacity:1;stroke-width:0.265;paint-order:fill markers stroke"
       inkscape:label="a"
       d="m 102.69967,80.444185 c -0.16172,0 -0.26444,0.128789 -0.3085,0.386023 -0.0367,0.257234 -0.0844,0.386023 -0.14315,0.386023 0.0147,0 -0.31603,-0.117764 -0.99219,-0.35295 -0.67615,-0.242534 -1.20181,-0.363802 -1.576643,-0.363802 -1.800638,0 -3.101503,0.474044 -3.902604,1.422136 -0.96279,1.146528 -1.444356,2.583188 -1.444356,4.310331 0,1.484608 0.426445,2.7524 1.278991,3.803385 0.911344,1.12448 2.08744,1.686719 3.52795,1.686719 0.448322,0 1.010562,-0.172369 1.686722,-0.517798 0.67614,-0.352778 0.99584,-0.529167 0.95911,-0.529167 0.0882,0 0.13933,0.146818 0.154,0.4408 0.0147,0.293982 0.17305,0.4408 0.47439,0.4408 0.24253,0 0.60634,-0.01453 1.0914,-0.04393 0.49242,-0.0294 0.85973,-0.04393 1.10226,-0.04393 h 1.98438 c 0.31603,-0.02205 0.47387,-0.180407 0.47387,-0.474389 l -0.12092,-1.686719 c -0.1176,-1.514006 -0.17674,-2.667536 -0.17674,-3.461287 0,-1.021587 0.15836,-2.370569 0.47439,-4.046265 0.0294,-0.132292 0.0439,-0.223989 0.0439,-0.275435 0,-0.102891 -0.0662,-0.176559 -0.19844,-0.220659 -0.32338,-0.09554 -1.06201,-0.260908 -2.21589,-0.496094 -1.20532,-0.242535 -1.92942,-0.363802 -2.17196,-0.363802 z m -1.90686,4.520138 c 0.66146,0 0.99219,0.33825 0.99219,1.014408 0,0.286632 -0.0957,0.525147 -0.2868,0.716236 -0.18374,0.183738 -0.41875,0.275952 -0.70539,0.275952 -0.30133,0 -0.55489,-0.09221 -0.76067,-0.275952 -0.205788,-0.183739 -0.309028,-0.422254 -0.309028,-0.716236 0,-0.293982 0.10324,-0.536516 0.309028,-0.727604 0.20578,-0.191088 0.45934,-0.286804 0.76067,-0.286804 z" />
    <path
       id="path40"
       style="font-weight:bold;font-size:22.5778px;font-family:'Berlin Sans FB';-inkscape-font-specification:'Berlin Sans FB Bold';fill:#ffffff;fill-opacity:1;stroke-width:0.265;paint-order:fill markers stroke"
       inkscape:label="e"
       d="m 88.026668,80.179602 c -1.668346,0 -3.061425,0.56976 -4.178556,1.70894 -1.109781,1.139179 -1.664498,2.550288 -1.664498,4.233333 0,1.866785 0.576765,3.281395 1.730644,4.244185 1.073033,0.903994 2.565331,1.35599 4.476212,1.35599 1.999076,0 3.406166,-0.392855 4.221965,-1.179256 0.09555,-0.08819 0.14366,-0.172887 0.14366,-0.253732 0,-0.03675 -0.125286,-0.231682 -0.375171,-0.58446 -0.279282,-0.396878 -0.418579,-0.598818 -0.418579,-0.606165 -0.242535,-0.485069 -0.418924,-0.852373 -0.529166,-1.102258 -0.0735,-0.132292 -0.169212,-0.198437 -0.286804,-0.198437 -0.08085,0 -0.40055,0.0917 -0.959115,0.275435 -0.551216,0.183739 -0.992187,0.275435 -1.322917,0.275435 -0.33073,0 -0.653936,-0.05512 -0.969966,-0.165364 -0.396876,-0.146991 -0.63941,-0.345428 -0.727605,-0.595313 l 2.579688,-0.297656 c 1.741842,-0.198435 2.696936,-0.319702 2.865975,-0.363802 0.477721,-0.117593 0.716752,-0.558564 0.716752,-1.322917 0,-1.462559 -0.521644,-2.730352 -1.565279,-3.803385 -1.036286,-1.080383 -2.28203,-1.620573 -3.73724,-1.620573 z m 0.06615,3.704167 c 0.213137,0 0.404052,0.09922 0.573092,0.297656 0.176389,0.198438 0.264583,0.407899 0.264583,0.628385 0,0.06615 -0.128789,0.110245 -0.386023,0.132292 -0.0735,0.0073 -0.260908,0.03341 -0.562239,0.07751 -0.235186,0.03675 -0.422599,0.05478 -0.56224,0.05478 -0.242535,0 -0.363802,-0.08418 -0.363802,-0.253215 0,-0.249884 0.10674,-0.466867 0.319877,-0.650606 0.220486,-0.191088 0.459517,-0.286804 0.716752,-0.286804 z" />
    <path
       id="path38"
       style="font-weight:bold;font-size:22.5778px;font-family:'Berlin Sans FB';-inkscape-font-specification:'Berlin Sans FB Bold';fill:#ffffff;fill-opacity:1;stroke-width:0.265;paint-order:fill markers stroke"
       inkscape:label="a"
       d="m 76.439779,80.444185 c -0.161688,0 -0.264409,0.128789 -0.308509,0.386023 -0.03675,0.257234 -0.08435,0.386023 -0.143143,0.386023 0.0147,0 -0.316029,-0.117764 -0.992188,-0.35295 -0.676158,-0.242534 -1.201821,-0.363802 -1.576648,-0.363802 -1.800638,0 -3.101503,0.474044 -3.902604,1.422136 -0.962791,1.146528 -1.444356,2.583188 -1.444356,4.310331 0,1.484608 0.426444,2.7524 1.278991,3.803385 0.911344,1.12448 2.08744,1.686719 3.52795,1.686719 0.448322,0 1.010561,-0.172369 1.686719,-0.517798 0.676158,-0.352778 0.995861,-0.529167 0.959115,-0.529167 0.08819,0 0.139296,0.146818 0.153996,0.4408 0.0147,0.293982 0.173058,0.4408 0.474389,0.4408 0.242535,0 0.606336,-0.01453 1.091406,-0.04393 0.49242,-0.0294 0.859723,-0.04393 1.102259,-0.04393 h 1.984375 c 0.31603,-0.02205 0.473873,-0.180407 0.473873,-0.474389 l -0.120923,-1.686719 c -0.117593,-1.514006 -0.176734,-2.667536 -0.176734,-3.461287 0,-1.021587 0.15836,-2.370569 0.47439,-4.046265 0.0294,-0.132292 0.04393,-0.223989 0.04393,-0.275435 0,-0.102891 -0.06614,-0.176559 -0.198437,-0.220659 -0.32338,-0.09554 -1.062007,-0.260908 -2.215886,-0.496094 -1.205325,-0.242535 -1.929426,-0.363802 -2.17196,-0.363802 z m -1.906861,4.520138 c 0.66146,0 0.992188,0.33825 0.992188,1.014408 0,0.286632 -0.09572,0.525147 -0.286804,0.716236 -0.183739,0.183738 -0.418752,0.275952 -0.705384,0.275952 -0.301331,0 -0.554889,-0.09221 -0.760677,-0.275952 -0.205787,-0.183739 -0.309025,-0.422254 -0.309025,-0.716236 0,-0.293982 0.103238,-0.536516 0.309025,-0.727604 0.205788,-0.191088 0.459346,-0.286804 0.760677,-0.286804 z" />
    <path
       class="cls-1"
       d="m 25.060357,76.493942 c 0.367377,-0.383449 0.625459,-0.715007 1.193974,-0.780675 1.064015,-0.121234 2.040779,0.968038 1.50349,2.040318 -0.152921,0.305382 -0.464274,0.668626 -0.808688,1.024982 -0.377939,0.391255 -0.79629,0.774705 -1.089272,1.065392 l -0.799045,0.792616 -0.660359,-0.635563 c -0.794453,-0.765063 -2.087617,-1.728049 -2.13354,-2.921104 -0.02893,-0.835782 0.63051,-1.371234 1.389143,-1.361589 0.67781,0.0091 0.964364,0.346252 1.404297,0.775623 z"
       id="path1"
       style="fill:#e2001a;fill-opacity:1;fill-rule:evenodd;stroke-width:0.0459221" />
  </g>
</svg>
